<svg class="animated" id="freepik_stories-file-bundle" xmlns="http://www.w3.org/2000/svg" viewBox="0 0 500 500" version="1.1" xmlns:xlink="http://www.w3.org/1999/xlink" xmlns:svgjs="http://svgjs.com/svgjs"><style>svg#freepik_stories-file-bundle:not(.animated) .animable {opacity: 0;}svg#freepik_stories-file-bundle.animated #freepik--background-complete--inject-75 {animation: 3s Infinite  linear floating;animation-delay: 1s;}svg#freepik_stories-file-bundle.animated #freepik--character-2--inject-75 {animation: 1.5s Infinite  linear wind;animation-delay: 0s;}svg#freepik_stories-file-bundle.animated #freepik--character-1--inject-75 {animation: 1.5s Infinite  linear wind;animation-delay: 0s;}            @keyframes floating {                0% {                    opacity: 1;                    transform: translateY(0px);                }                50% {                    transform: translateY(-10px);                }                100% {                    opacity: 1;                    transform: translateY(0px);                }            }                    @keyframes wind {                0% {                    transform: rotate( 0deg );                }                25% {                    transform: rotate( 1deg );                }                75% {                    transform: rotate( -1deg );                }            }        </style><g id="freepik--background-complete--inject-75" class="animable" style="transform-origin: 248.24px 184.655px;"><path d="M424.22,313.15l13.35-.27,6.58-.12c2.19,0,4.37,0,6.55-.05l-.45.44L450.2,302l.5.49-13.24-.06c-4.42,0-8.83-.11-13.24-.16l.27-.27c0,1.83-.09,3.67-.13,5.53Zm0,0-.15-5.53c0-1.87-.11-3.76-.13-5.65v-.27h.28c4.41-.05,8.82-.16,13.24-.16l13.24-.06h.5V302l-.06,11.18v.45h-.44c-2.23,0-4.47,0-6.7-.05l-6.66-.12Z" style="fill: rgb(235, 235, 235); transform-origin: 437.57px 307.555px;" id="el4rwidtfe4ln" class="animable"></path><path d="M439,327.26l13.35-.27,6.58-.12c2.19,0,4.37,0,6.55-.05l-.45.44,0-11.18.5.49-13.24-.06c-4.41,0-8.83-.11-13.24-.16l.27-.27c0,1.83-.08,3.67-.13,5.53Zm0,0-.14-5.53c-.05-1.87-.12-3.76-.13-5.65v-.27H439c4.41-.05,8.83-.16,13.24-.16l13.24-.06h.5v.51l-.06,11.18v.45h-.44c-2.23,0-4.47,0-6.7,0l-6.66-.12Z" style="fill: rgb(235, 235, 235); transform-origin: 452.355px 321.66px;" id="eln8iog1y0l3a" class="animable"></path><path d="M105.33,197.64l13.36-.28,6.58-.12c2.18,0,4.36,0,6.54-.05l-.44.45-.06-11.19.5.5-13.24-.07c-4.41,0-8.82-.11-13.24-.16l.27-.27c0,1.83-.08,3.67-.13,5.53Zm0,0-.14-5.54c0-1.87-.11-3.76-.13-5.65v-.27h.27c4.42,0,8.83-.16,13.24-.16l13.24-.06h.5v.51l-.05,11.19v.44h-.45c-2.23,0-4.47,0-6.69-.05l-6.66-.12Z" style="fill: rgb(235, 235, 235); transform-origin: 118.685px 192.03px;" id="eln7iibo7rjh" class="animable"></path><path d="M120.1,211.75l13.36-.28,6.58-.12c2.19,0,4.36,0,6.54,0l-.44.45-.06-11.19.5.49L133.34,201c-4.41,0-8.82-.11-13.24-.16l.28-.27c0,1.83-.09,3.67-.13,5.53Zm0,0-.14-5.54c0-1.87-.11-3.76-.13-5.65v-.27h.27c4.42-.05,8.83-.16,13.24-.16l13.24-.06h.51v.51L147,211.75v.44h-.45c-2.23,0-4.47,0-6.69-.05l-6.66-.12Z" style="fill: rgb(235, 235, 235); transform-origin: 133.46px 206.13px;" id="eljdnb9pkibfp" class="animable"></path><path d="M134.82,197.64l13.35-.28,6.58-.12c2.19,0,4.37,0,6.55-.05l-.45.45,0-11.19.5.5-13.24-.07c-4.42,0-8.83-.11-13.24-.16l.27-.27c0,1.83-.09,3.67-.13,5.53Zm0,0-.15-5.54c0-1.87-.11-3.76-.13-5.65v-.27h.28c4.41,0,8.82-.16,13.24-.16L161.3,186h.5v.51l-.06,11.19v.44h-.44c-2.23,0-4.47,0-6.7-.05l-6.66-.12Z" style="fill: rgb(235, 235, 235); transform-origin: 148.17px 192.07px;" id="elcmsqi80pg4" class="animable"></path><path d="M40.45,332.53l13.36-.28,6.58-.12c2.18,0,4.36,0,6.54-.05l-.44.44-.06-11.18.5.49-13.24-.06c-4.41,0-8.83-.11-13.24-.16l.27-.27c0,1.83-.08,3.67-.13,5.53Zm0,0L40.31,327c-.05-1.87-.11-3.76-.13-5.65v-.27h.27c4.41-.05,8.83-.16,13.24-.16l13.24-.06h.5v.51l-.05,11.18V333h-.45c-2.23,0-4.47,0-6.69-.05l-6.66-.12Z" style="fill: rgb(235, 235, 235); transform-origin: 53.805px 326.93px;" id="ela0sj6adrhf" class="animable"></path><path d="M45.54,85.45l13.36-.28,6.58-.11c2.18,0,4.36,0,6.54-.06l-.44.45-.06-11.19.5.5-13.24-.07c-4.41,0-8.83-.11-13.24-.16l.27-.27c0,1.83-.08,3.67-.13,5.53Zm0,0-.14-5.54c0-1.87-.11-3.75-.13-5.65V74h.27c4.41,0,8.83-.15,13.24-.16L72,73.76h.5v.5l0,11.19v.45H72c-2.23,0-4.47,0-6.69,0l-6.66-.11Z" style="fill: rgb(235, 235, 235); transform-origin: 58.885px 79.83px;" id="elkx73yadp2ag" class="animable"></path><path d="M30.77,99.56l13.36-.28,6.57-.11c2.19,0,4.37,0,6.55-.06l-.45.45,0-11.19.5.5L44,88.8c-4.41,0-8.83-.11-13.24-.16l.27-.27C31,90.2,31,92,30.91,93.9Zm0,0L30.63,94c-.05-1.87-.11-3.75-.13-5.65V88.1h.28c4.41,0,8.83-.15,13.24-.16l13.24-.06h.5v.5l0,11.19V100h-.44c-2.23,0-4.47,0-6.69,0l-6.67-.11Z" style="fill: rgb(235, 235, 235); transform-origin: 44.13px 93.94px;" id="elwuf8gbpipm" class="animable"></path><path d="M353.82,48l13.35-.28,6.58-.11c2.19-.05,4.36,0,6.55-.05l-.45.44L379.8,36.8l.5.5-13.24-.06c-4.42,0-8.83-.11-13.24-.17l.27-.27c0,1.83-.09,3.67-.13,5.54Zm0,0-.15-5.54c0-1.86-.11-3.75-.13-5.65v-.27h.28c4.41-.05,8.82-.16,13.24-.17l13.24-.06h.5v.5L380.74,48v.45h-.44c-2.24,0-4.47,0-6.7-.06l-6.66-.11Z" style="fill: rgb(235, 235, 235); transform-origin: 367.17px 42.38px;" id="elr4jj0774p9h" class="animable"></path><g id="eliw3fvmaobf8"><rect x="53.39" y="141.11" width="163.63" height="7.17" style="fill: rgb(235, 235, 235); transform-origin: 135.205px 144.695px; transform: rotate(180deg);" class="animable" id="eluqrs4vxrcok"></rect></g><rect x="200.67" y="148.29" width="7.18" height="23.73" style="fill: rgb(235, 235, 235); transform-origin: 204.26px 160.155px;" id="elpv16i7ewfi" class="animable"></rect><rect x="200.67" y="148.29" width="7.18" height="7.34" style="fill: rgb(219, 219, 219); transform-origin: 204.26px 151.96px;" id="elzrpu17ao11r" class="animable"></rect><rect x="62.56" y="148.29" width="7.18" height="23.73" style="fill: rgb(235, 235, 235); transform-origin: 66.15px 160.155px;" id="elm8b25uf69w" class="animable"></rect><rect x="62.56" y="148.29" width="7.18" height="7.34" style="fill: rgb(219, 219, 219); transform-origin: 66.15px 151.96px;" id="el8ywqqak8cva" class="animable"></rect><g id="elj5pczau36e"><rect x="157.86" y="112.49" width="45.73" height="11.52" style="fill: rgb(199, 199, 199); transform-origin: 180.725px 118.25px; transform: rotate(90deg);" class="animable" id="elkc9k6wkftgh"></rect></g><g id="el7uxakkjyzv9"><rect x="178.21" y="89.69" width="5.03" height="11.52" style="fill: rgb(219, 219, 219); transform-origin: 180.725px 95.45px; transform: rotate(90deg);" class="animable" id="el6uk3wri0pci"></rect></g><g id="elatj1v276gs"><rect x="179.79" y="99.58" width="1.86" height="11.52" style="fill: rgb(219, 219, 219); transform-origin: 180.72px 105.34px; transform: rotate(90deg);" class="animable" id="ele4uir07wy0v"></rect></g><g id="eldnpc03tlvpk"><rect x="177.49" y="126.13" width="5.03" height="12.95" style="fill: rgb(219, 219, 219); transform-origin: 180.005px 132.605px; transform: rotate(90deg);" class="animable" id="el7m7079cswth"></rect></g><g id="elyryh1s17j0a"><rect x="144.27" y="110.42" width="53.35" height="8.05" style="fill: rgb(219, 219, 219); transform-origin: 170.945px 114.445px; transform: rotate(90deg);" class="animable" id="el7op9d9r2qoe"></rect></g><g id="elbsku2hvezun"><rect x="160.72" y="100.63" width="20.52" height="4.83" style="fill: rgb(235, 235, 235); transform-origin: 170.98px 103.045px; transform: rotate(90deg);" class="animable" id="el0zhnybhn0v7"></rect></g><g id="el8tfmsm8ssc9"><rect x="104.78" y="115.49" width="53.35" height="8.05" style="fill: rgb(199, 199, 199); transform-origin: 131.455px 119.515px; transform: rotate(135.33deg);" class="animable" id="eldm41wcrif89"></rect></g><g id="el2gzuntqj7zw"><rect x="118.41" y="119.82" width="20.52" height="4.83" style="fill: rgb(219, 219, 219); transform-origin: 128.67px 122.235px; transform: rotate(135.33deg);" class="animable" id="elaxcz716ldft"></rect></g><g id="elshmb5pf1cfl"><rect x="139.83" y="114.03" width="40.52" height="13.67" style="fill: rgb(166, 166, 166); transform-origin: 160.09px 120.865px; transform: rotate(90deg);" class="animable" id="el2ozwww7kyme"></rect></g><g id="eltpsrxl0o2wh"><rect x="158.2" y="128.11" width="3.78" height="13.67" style="fill: rgb(199, 199, 199); transform-origin: 160.09px 134.945px; transform: rotate(90deg);" class="animable" id="ellzls3bmm9pd"></rect></g><g id="elpbqzm0408w"><rect x="159.36" y="123.01" width="1.46" height="13.67" style="fill: rgb(199, 199, 199); transform-origin: 160.09px 129.845px; transform: rotate(90deg);" class="animable" id="elomgu01o3b6k"></rect></g><g id="elzk97wpprww"><rect x="172.16" y="117.36" width="38.08" height="9.44" style="fill: rgb(166, 166, 166); transform-origin: 191.2px 122.08px; transform: rotate(90deg);" class="animable" id="elxlsuz9cmo1d"></rect></g><g id="el5lbki1tmvav"><rect x="189.43" y="130.59" width="3.55" height="9.44" style="fill: rgb(199, 199, 199); transform-origin: 191.205px 135.31px; transform: rotate(90deg);" class="animable" id="elcv17yhz9bxj"></rect></g><g id="elwekupp1g1p"><rect x="189.43" y="107.95" width="3.55" height="9.44" style="fill: rgb(199, 199, 199); transform-origin: 191.205px 112.67px; transform: rotate(90deg);" class="animable" id="el4hv70s3q6ib"></rect></g><g id="elp837drkk3r"><rect x="190.52" y="112.84" width="1.38" height="9.44" style="fill: rgb(199, 199, 199); transform-origin: 191.21px 117.56px; transform: rotate(90deg);" class="animable" id="elomew9gmwku"></rect></g><path d="M86.48,92.33c8.06,7.89,9.41,20.09,7.71,30.77,0,.25-.42.18-.42,0,0-2.43.08-4.84.07-7.24,0-.11-.08-.22-.13-.33a16.19,16.19,0,0,1-5.23-5.62c-1.34-2.64-1.87-5.63-2.9-8.39-.1-.27.18-.19.37,0,4.9,3.61,6.46,7.5,7.87,12.7A43.7,43.7,0,0,0,93,106a27.59,27.59,0,0,0-6.69-13.47C86.14,92.41,86.34,92.19,86.48,92.33Z" style="fill: rgb(166, 166, 166); transform-origin: 90.1978px 107.774px;" id="eleu8fu29aee9" class="animable"></path><path d="M85,93.25c-1.39,0-2.26,2.26-3.34,2.91a1,1,0,0,1-1.53-.24c-1.07-1.49.4-3.34,1.78-4.37A14.61,14.61,0,0,1,79,92.87a1,1,0,0,1-1.29-.77c-.47-2,2.08-2.94,3.83-3-.85-.59-3.28-2.19-2-3s4.17,1.5,5.1,2.26c1.37,1.11,3,2.77,3.07,4.51C87.81,94.93,86,93.68,85,93.25Z" style="fill: rgb(219, 219, 219); transform-origin: 82.6836px 91.1726px;" id="el5cq6e6nqkvk" class="animable"></path><path d="M85.37,93.59c-1.77-.8-5.18.36-5.47-.31-.58-1.37,2.14-2.3,3.6-2.49-1.35-.36-3.94-1-3.86-2.25.1-1.59,4-.22,5.94,1.28,2.47,1.9,2.45,3.73,2,4.09C87.06,94.41,85.66,93.73,85.37,93.59Z" style="fill: rgb(235, 235, 235); transform-origin: 83.7257px 90.9605px;" id="eldi1zzwd3l49" class="animable"></path><path d="M104.83,91.55C96.48,99.13,94.66,111.27,96,122c0,.24.41.19.42,0,.09-2.43.11-4.84.21-7.24l.14-.32a16.21,16.21,0,0,0,5.44-5.42c1.45-2.59,2.09-5.55,3.22-8.27.11-.27-.18-.2-.37-.07-5,3.42-6.74,7.25-8.34,12.39A42.7,42.7,0,0,1,97.83,105,27.57,27.57,0,0,1,105,91.77C105.17,91.64,105,91.42,104.83,91.55Z" style="fill: rgb(166, 166, 166); transform-origin: 100.528px 106.836px;" id="elauua36h9s97" class="animable"></path><path d="M106.3,92.53c1.39.1,2.17,2.34,3.22,3a1,1,0,0,0,1.54-.18c1.13-1.45-.27-3.35-1.61-4.43a15.9,15.9,0,0,0,2.82,1.43,1,1,0,0,0,1.32-.73c.55-2-2-3-3.72-3.13.87-.56,3.37-2.07,2.11-2.91s-4.23,1.35-5.19,2.07c-1.41,1.06-3.1,2.65-3.23,4.39C103.4,94.09,105.22,92.91,106.3,92.53Z" style="fill: rgb(219, 219, 219); transform-origin: 108.608px 90.6018px;" id="elwfsrzib4p5c" class="animable"></path><path d="M105.89,92.85c1.8-.73,5.16.55,5.47-.1.64-1.35-2-2.39-3.5-2.62,1.36-.32,4-.8,3.94-2.11,0-1.59-4-.37-6,1.06-2.54,1.8-2.59,3.63-2.2,4S105.59,93,105.89,92.85Z" style="fill: rgb(235, 235, 235); transform-origin: 107.611px 90.2464px;" id="ele74okocz3ji" class="animable"></path><path d="M96.29,111.55a82.71,82.71,0,0,1-2.59,12,.3.3,0,0,1-.59-.12c.55-3.69,1.55-7.31,2.1-11a55.48,55.48,0,0,0,.64-11.3c-.35-6.22-2-12.83-6.1-17.7-.09-.11.1-.27.19-.17,8.13,9.48,6.84,21.09,6.83,22.13C97.92,101.45,99.1,97,103.45,93c.19-.17.34-.09.31.2-.78,7.28-2.8,11.07-7,15C96.62,109.27,96.47,110.42,96.29,111.55Z" style="fill: rgb(166, 166, 166); transform-origin: 96.7451px 103.509px;" id="eldmgwppm22hg" class="animable"></path><path d="M89.68,84.5c-1.46-.65-3.48,1.22-4.93,1.34a1.19,1.19,0,0,1-1.46-1c-.36-2.09,2.09-3.26,4-3.63-1.23-.08-2.43.25-3.64-.08a1.15,1.15,0,0,1-1-1.45c.54-2.35,3.65-2,5.49-1.17-.59-1-2.3-3.93-.56-4.1s3.56,3.66,4.15,4.91c.86,1.84,1.72,4.39.91,6.22C91.78,87.67,90.57,85.48,89.68,84.5Z" style="fill: rgb(219, 219, 219); transform-origin: 87.7865px 80.4224px;" id="elailmwgg2cwd" class="animable"></path><path d="M89.92,85.06c-1.43-1.73-5.55-2.24-5.51-3.08.08-1.71,3.37-1.31,5-.76-1.22-1.06-3.61-3-2.88-4.29.91-1.6,4.24,1.77,5.52,4.32,1.61,3.21.67,5.1.06,5.28C91.27,86.76,90.16,85.34,89.92,85.06Z" style="fill: rgb(235, 235, 235); transform-origin: 88.6763px 81.5352px;" id="el89mht5c082x" class="animable"></path><path d="M101.63,113.74l3.59,27.38H83.41c.45-2.43,4.51-27.41,4.51-27.41Z" style="fill: rgb(219, 219, 219); transform-origin: 94.315px 127.415px;" id="elx07ofv8avlb" class="animable"></path><path d="M304.59,70V257.32h143.3V70Zm139.52,183.5H308.37V73.82H444.11Z" style="fill: rgb(235, 235, 235); transform-origin: 376.24px 163.66px;" id="el8v8tczl087e" class="animable"></path><polygon points="444.11 73.82 444.11 253.54 379.6 253.54 379.6 74.8 375.83 74.8 375.83 253.54 308.37 253.54 308.37 73.82 444.11 73.82" style="fill: rgb(255, 255, 255); transform-origin: 376.24px 163.68px;" id="elqyjm35drjt" class="animable"></polygon><rect x="375.83" y="74.8" width="3.77" height="180.63" style="fill: rgb(235, 235, 235); transform-origin: 377.715px 165.115px;" id="elmrm3f7ggaz7" class="animable"></rect><g id="elckq7vavsxol"><rect x="301.17" y="77.68" width="150.15" height="5.26" style="fill: rgb(235, 235, 235); transform-origin: 376.245px 80.31px; transform: rotate(180deg);" class="animable" id="eley0gt50pvpi"></rect></g><g id="elrpbs8azmgf"><rect x="301.17" y="83.6" width="150.15" height="5.26" style="fill: rgb(235, 235, 235); transform-origin: 376.245px 86.23px; transform: rotate(180deg);" class="animable" id="elyzoh24dy95s"></rect></g><g id="elvoz5azv1f1f"><rect x="301.17" y="89.52" width="150.15" height="5.26" style="fill: rgb(235, 235, 235); transform-origin: 376.245px 92.15px; transform: rotate(180deg);" class="animable" id="elogmlm2xts0m"></rect></g><g id="elav66cks3ta"><rect x="301.17" y="95.43" width="150.15" height="5.26" style="fill: rgb(235, 235, 235); transform-origin: 376.245px 98.06px; transform: rotate(180deg);" class="animable" id="elpdijwy0943"></rect></g><g id="elsfjo11h1np"><rect x="301.17" y="101.35" width="150.15" height="5.26" style="fill: rgb(235, 235, 235); transform-origin: 376.245px 103.98px; transform: rotate(180deg);" class="animable" id="el7sacy1vipkg"></rect></g><g id="elt84xt3j80w"><rect x="301.17" y="107.27" width="150.15" height="5.26" style="fill: rgb(235, 235, 235); transform-origin: 376.245px 109.9px; transform: rotate(180deg);" class="animable" id="el6o3siam9cqu"></rect></g><g id="elywi8215gq2d"><rect x="301.17" y="113.19" width="150.15" height="5.26" style="fill: rgb(235, 235, 235); transform-origin: 376.245px 115.82px; transform: rotate(180deg);" class="animable" id="elhdmylx9r03d"></rect></g><g id="elbcpecj26bhc"><rect x="301.17" y="119.11" width="150.15" height="5.26" style="fill: rgb(235, 235, 235); transform-origin: 376.245px 121.74px; transform: rotate(180deg);" class="animable" id="elr8mapgbbdv"></rect></g><g id="elmitl1m6cmur"><rect x="301.17" y="125.03" width="150.15" height="5.26" style="fill: rgb(235, 235, 235); transform-origin: 376.245px 127.66px; transform: rotate(180deg);" class="animable" id="eldty0tyyaoy"></rect></g><rect x="312.39" y="76.61" width="0.94" height="121.28" style="fill: rgb(219, 219, 219); transform-origin: 312.86px 137.25px;" id="elbp37iiy15im" class="animable"></rect><polygon points="311.19 202.29 314.54 202.29 313.7 197.47 312.03 197.47 311.19 202.29" style="fill: rgb(219, 219, 219); transform-origin: 312.865px 199.88px;" id="eldken94q7fto" class="animable"></polygon><rect x="308.99" y="76.61" width="0.94" height="175.45" style="fill: rgb(219, 219, 219); transform-origin: 309.46px 164.335px;" id="eleolr7eemwzv" class="animable"></rect><polygon points="307.78 255.6 311.14 255.6 310.3 250.78 308.63 250.78 307.78 255.6" style="fill: rgb(219, 219, 219); transform-origin: 309.46px 253.19px;" id="elc12xsdblhxi" class="animable"></polygon><g id="elwvfd1v8hmb"><rect x="295.31" y="69.3" width="161.87" height="11.01" style="fill: rgb(219, 219, 219); transform-origin: 376.245px 74.805px; transform: rotate(180deg);" class="animable" id="eluh8lvu7djq"></rect></g></g><g id="freepik--Plant--inject-75" class="animable animator-active" style="transform-origin: 77.3295px 305.426px;"><path d="M83.51,307.61a54.83,54.83,0,0,0-1.76,10c.09.17.07.79,0,.62,0,.55-.85.45-.85-.09q0-.54,0-1.05c-1.94-2.42-4.77-3.95-7.06-6.05A13.21,13.21,0,0,1,70,304.85c-1.9-6.54-.12-13.46-2.4-20-2-5.62-5.49-10.51-8.48-15.6-3.15-5.39-5.47-11-5.7-17.36-.19-4.83.39-11.26,4.06-14.88,3.9-3.84,8.74-1,11.73,2.46,8.65,9.94,12.66,22.49,14.28,35.33.89,7.1,1.82,14.25,1.6,21.43A57.21,57.21,0,0,1,83.51,307.61Z" style="fill: #FFC100; transform-origin: 69.2555px 276.884px;" id="elwaiqybo3z8" class="animable"></path><path d="M81.79,320.19a121.89,121.89,0,0,0-.24-20.13.15.15,0,0,0,0-.07c.11-5.44.55-10.86.33-16.31a97.23,97.23,0,0,0-2.39-17.49.06.06,0,0,0-.11,0,112.83,112.83,0,0,1,1.89,17.1q.17,4.62-.07,9.22c0,1-.14,2-.21,3h0A107.8,107.8,0,0,0,64.83,252.7c-.11-.18-.43,0-.32.19a111.89,111.89,0,0,1,13.18,31.77c-4.16-7.72-10.45-14.06-15.12-21.47,0,0-.09,0-.07,0C66.69,271.48,73.62,278,78,286.12c.77,3.31,1.39,6.66,1.86,10a111.94,111.94,0,0,1,1,13.93c-2.53-4.74-5.16-9.28-7.24-14.29-.05-.13-.25,0-.2.09,1.76,5.21,4.14,10.82,7.46,15.26,0,3.29-.08,6.59-.28,9.88-.51,8.79-2,17.46-2.71,26.22a.2.2,0,0,0,.4,0A200.34,200.34,0,0,0,81.79,320.19Z" style="fill: rgb(38, 50, 56); transform-origin: 72.296px 300.018px;" id="el9f85ig8ggfk" class="animable"></path><path d="M72.46,252.42c0-.07-.12,0-.1,0C74,256.9,74.87,261.4,76,266a.17.17,0,0,0,.33-.06A48.51,48.51,0,0,0,72.46,252.42Z" style="fill: rgb(38, 50, 56); transform-origin: 74.3439px 259.251px;" id="elkcvvxjtj0vs" class="animable"></path><path d="M113.22,271a67.25,67.25,0,0,1-3.69,7.59c-2.89,5.24-5.91,10.05-6.46,16.17a37.42,37.42,0,0,1-1.16,8.1,24.32,24.32,0,0,1-3.23,6.34c-3.13,4.56-7,8.49-10,13.23a55.67,55.67,0,0,0-6.61,15.94c-.07.31-.56.23-.48-.08a.15.15,0,0,0,0-.07.08.08,0,0,1,0-.06c-.46-13.11.58-26.32,4.58-38.87a134.22,134.22,0,0,1,6.35-16.17,38.21,38.21,0,0,1,8.57-12.33c2.44-2.2,7.73-6.36,11.2-4.16C114,267.71,113.87,269.39,113.22,271Z" style="fill: #FFC100; transform-origin: 97.5776px 302.286px;" id="el0ij31gw7wxz" class="animable"></path><path d="M100.05,300.73a108.66,108.66,0,0,1-7.62,10.95c-1.27,1.66-2.56,3.3-3.82,5-.6.78-1.27,1.56-1.82,2.4.35-1.37.68-2.76,1-4.13,1.7-6.62,3.32-13.3,5.84-19.67a133.06,133.06,0,0,1,9.1-17.84c.09-.15-.16-.26-.25-.11-2.77,4.55-5.58,9.1-7.9,13.9a71,71,0,0,0-3.36,8.25,126.81,126.81,0,0,1,4.47-17.63c0-.05-.06-.09-.08,0A60.3,60.3,0,0,0,91,300.11v0c-.57,1.7-1.09,3.42-1.58,5.15-2.06,7.33-3.87,14.74-5.55,22.18a78.47,78.47,0,0,1,1.26-14.58c0-.11-.15-.13-.17,0a46.19,46.19,0,0,0-1.27,15.36q-.95,4.25-1.86,8.49c-1.28,6-2.87,12.19-3.62,18.32a.12.12,0,0,0,.24,0c.9-3.3,1.44-6.73,2.18-10.08s1.5-6.71,2.28-10.06q1.71-7.31,3.54-14.59A26,26,0,0,1,90,315.49c1.29-1.64,2.58-3.28,3.84-4.95a74.06,74.06,0,0,0,6.3-9.75A.06.06,0,1,0,100.05,300.73Z" style="fill: rgb(38, 50, 56); transform-origin: 90.4796px 316.204px;" id="el0upyf7cejwy" class="animable"></path><path d="M100.61,295.13A67.41,67.41,0,0,0,93.15,307s.06.11.09.06c2.51-3.93,5-7.9,7.48-11.83C100.76,295.13,100.65,295.07,100.61,295.13Z" style="fill: rgb(38, 50, 56); transform-origin: 96.9393px 301.09px;" id="elx3fzcn4v0nm" class="animable"></path><path d="M44.82,283.45c1.7,2.92,3.63,6.43,2.9,9.95-.46,2.22-2.09,4-2.38,6.29-.66,5,4.33,8.32,7.94,10.68,9,5.91,21.34,11.17,23,23.23.06.42.8.32.75-.1a.24.24,0,0,0,0-.08s0,0,0-.07a46.07,46.07,0,0,0-.17-18.42c-1.34-6.21-4-11.8-7.25-17.26-5.42-9.23-11.15-18.7-19.34-25.77-2.27-2-6.91-5.48-8.72-1.06S42.74,279.88,44.82,283.45Z" style="fill: #FFC100; transform-origin: 59.4348px 301.285px;" id="elzvto9plq9ua" class="animable"></path><path d="M53.05,303c6,6.45,15.45,10.07,20.59,17.31a72.41,72.41,0,0,0-15.82-29.72.23.23,0,0,1,.33-.33A58.71,58.71,0,0,1,71.08,309a84.08,84.08,0,0,0-5.57-14.24c-.09-.18.16-.33.26-.16a54.16,54.16,0,0,1,6,16c6.77,16.38,7.4,35.59,6,52.86,0,.25-.4.26-.39,0,.39-13.61.17-27.45-3.09-40.74l-.21-.83c-5.59-7.79-15-11.4-21.11-18.79C52.89,303.07,53,303,53.05,303Z" style="fill: rgb(38, 50, 56); transform-origin: 65.6604px 326.921px;" id="ellp2l7kwg04g" class="animable"></path><path d="M51.67,297.49c3.13,2.87,6.22,5.81,9.35,8.68,0,0,0,.09,0,.06a45.52,45.52,0,0,1-9.5-8.56A.13.13,0,0,1,51.67,297.49Z" style="fill: rgb(38, 50, 56); transform-origin: 56.2641px 301.861px;" id="eljnmi4fpqep" class="animable"></path><path d="M51.18,285a97.65,97.65,0,0,0,9.37,12.89c0,.05,0,.13-.08.08A45.49,45.49,0,0,1,51,285.14.1.1,0,1,1,51.18,285Z" style="fill: rgb(38, 50, 56); transform-origin: 55.763px 291.471px;" id="eld18vdv8t0dc" class="animable"></path><polygon points="65.28 375.68 92.71 375.68 89.01 338.77 69.5 338.77 65.28 375.68" style="fill: rgb(69, 90, 100); transform-origin: 78.995px 357.225px;" id="ela7qmn49809a" class="animable"></polygon><polygon points="68.81 344.77 89.62 344.77 89.02 338.77 69.5 338.77 68.81 344.77" style="fill: rgb(38, 50, 56); transform-origin: 79.215px 341.77px;" id="elevoibgd9wxe" class="animable"></polygon><g id="elmkp5ueffdhk"><rect x="66.14" y="334.68" width="25.72" height="5.89" style="fill: rgb(69, 90, 100); transform-origin: 79px 337.625px; transform: rotate(180deg);" class="animable" id="elsxz1whlexfe"></rect></g></g><g id="freepik--Floor--inject-75" class="animable" style="transform-origin: 250px 375.68px;"><polygon points="40.29 375.68 92.72 375.44 145.14 375.35 250 375.18 354.86 375.35 407.28 375.44 459.71 375.68 407.28 375.92 354.86 376.01 250 376.18 145.14 376.01 92.72 375.92 40.29 375.68" style="fill: rgb(38, 50, 56); transform-origin: 250px 375.68px;" id="el9kgk3f590an" class="animable"></polygon></g><g id="freepik--Shadow--inject-75" class="animable" style="transform-origin: 250px 431.57px;"><ellipse cx="250" cy="431.57" rx="204.99" ry="14.92" style="fill: rgb(235, 235, 235); transform-origin: 250px 431.57px;" id="eluxbd7ii5yhp" class="animable"></ellipse></g><g id="freepik--character-2--inject-75" class="animable" style="transform-origin: 354.271px 280.121px;"><path d="M303.52,432.38c2,.71,59.6,1.72,61.82.37.85-.5,1.49-8.89,2-19,0-.11,0-.22,0-.32.1-2.09,1.43-38.4,1.43-38.4l-37.41-.52-1.18,37.85V413s-22.22,9.48-24.5,11.22S301.52,431.67,303.52,432.38Z" style="fill: rgb(235, 148, 129); transform-origin: 335.722px 403.962px;" id="elxel0fefc1fl" class="animable"></path><path d="M365.34,432.74c-2.22,1.36-59.82.35-61.82-.37s-.12-6.46,2.14-8.19c1.23-.94,8.23-4.13,14.44-6.86-7.7,4.47-13,9.75,16.47,6.84,17.35-1.71,26.11-3.25,30.4-4.24C366.54,427.09,366,432.35,365.34,432.74Z" style="fill: rgb(38, 50, 56); transform-origin: 334.822px 425.366px;" id="elrrfd63zlp69" class="animable"></path><path d="M380.56,203.58s-9.39,97.57-10.8,105c-.32,1.69-.87,95.43-.87,95.43l-39.33-.6s3.83-80.63,5.63-95.47,10.22-104.36,10.22-104.36Z" style="fill: rgb(38, 50, 56); transform-origin: 355.06px 303.795px;" id="elcb5f9kc62cw" class="animable"></path><path d="M367.68,395.82a28.12,28.12,0,0,0-3.55-.26c-1.18-.06-2.37-.12-3.55-.16-2.33-.09-4.66-.2-7-.28q-7.11-.24-14.22-.5c-2.66-.09-5.33-.1-8-.07a.08.08,0,0,0,0,.16c9.43,1,18.95,1.15,28.42,1.38l4.06.07a30.86,30.86,0,0,0,3.85-.06C367.88,396.08,367.82,395.84,367.68,395.82Z" style="fill: rgb(55, 71, 79); transform-origin: 349.545px 395.364px;" id="el6kns7iro3s8" class="animable"></path><path d="M375.26,207.88c-2.87,23.79-5.74,47.59-8.12,71.43-1.17,11.83-2.28,23.67-3,35.54s-1,23.93-1.2,35.9c-.19,13.54-.51,27.09-.29,40.63,0,.13.19.12.2,0,1.17-23.93.84-47.91,2.11-71.84s3.86-47.77,6.5-71.6c1.47-13.34,2.85-26.67,4.23-40C375.7,207.69,375.28,207.64,375.26,207.88Z" style="fill: rgb(55, 71, 79); transform-origin: 369.133px 299.599px;" id="el9pd8yw3txw" class="animable"></path><path d="M385.69,432.18c2.12.16,58-14,59.74-15.89.69-.71-.9-9-3.1-18.88l-.08-.32c-.44-2-12.21-36.42-12.21-36.42L393.81,370l12.31,35.83.17.61s-19,15-20.69,17.26S383.57,432,385.69,432.18Z" style="fill: rgb(235, 148, 129); transform-origin: 414.904px 396.426px;" id="el5gxs30sg7so" class="animable"></path><path d="M445.43,416.29c-1.78,1.89-57.62,16.06-59.74,15.89s-1.81-6.2-.09-8.47c.94-1.23,6.86-6.14,12.13-10.41-6.25,6.34-10,12.83,17.69,2.27,16.29-6.21,24.34-10,28.22-12.08C445.11,410.52,446,415.74,445.43,416.29Z" style="fill: rgb(38, 50, 56); transform-origin: 414.904px 417.836px;" id="el9qmn0by8zf6" class="animable"></path><path d="M402.64,403l39.83-9.6S412.65,315.81,411,310.6c-1.23-3.78-11.11-49.94-14.58-70.1,0,0,5.18-14.72-6.44-36.95H345.41s1,21.15,6.39,34.57a62.19,62.19,0,0,1,10.37,4.73S374.92,315,377,321.62C381.56,335.86,402.64,403,402.64,403Z" style="fill: rgb(38, 50, 56); transform-origin: 393.94px 303.275px;" id="eldnxsxlj6ko" class="animable"></path><path d="M369.25,281.49q-2.4-12.76-4.78-25.52c-.45-2.4-1-4.79-1.45-7.18s-.93-4.81-1.61-7.13c-.05-.15-.29-.12-.28,0,.13,2.17.53,4.34.82,6.49s.6,4.2.95,6.28q1.11,6.43,2.35,12.83c1.62,8.53,3.24,17.09,5.22,25.54,1.11,4.75,2.15,9.53,3.34,14.27,0,.1.17.05.15,0C372.47,298.53,370.86,290,369.25,281.49Z" style="fill: rgb(55, 71, 79); transform-origin: 367.546px 274.343px;" id="elqi7kx3khajf" class="animable"></path><path d="M359.87,232.24c.6-1.49.12-3.2-.15-4.71q-.51-2.86-1-5.74-1.2-6.47-2.6-12.89a0,0,0,0,0-.08,0c.42,3.43.89,6.85,1.38,10.27s1.17,6.86,1.59,10.31c.14,1.12,0,3.31-1.57,3.32-1.37,0-2.19-2-2.63-3a47.92,47.92,0,0,1-2.49-9.44c-.79-3.8-1.44-7.62-2.1-11.44,0-.13-.23-.09-.22,0a113,113,0,0,0,1.33,11.3c.59,3.57,1.14,7.32,2.64,10.63.57,1.25,1.36,2.78,2.79,3.17a2.25,2.25,0,0,0,.62.08c.13,1.14.3,2.26.54,3.39a24.57,24.57,0,0,0,.9,3.47.13.13,0,0,0,.26-.05h0a24.15,24.15,0,0,0-.52-3.48,34.17,34.17,0,0,0-.84-3.35A2.94,2.94,0,0,0,359.87,232.24Z" style="fill: rgb(55, 71, 79); transform-origin: 355.079px 224.951px;" id="elwvrbnajns2" class="animable"></path><path d="M367.34,243.37a36.44,36.44,0,0,0-7.07-2.35,49,49,0,0,0-7.11-1c-.09,0-.11.15,0,.16,2.38.37,11.8,2.68,14.15,3.27C367.36,243.49,367.4,243.4,367.34,243.37Z" style="fill: rgb(55, 71, 79); transform-origin: 360.227px 241.74px;" id="elzxlxsm2z9q" class="animable"></path><path d="M425.43,365.17q-3.19-8.51-6.4-17c-4.23-11.22-8.6-22.4-12.81-33.63s-6-22.89-8.22-34.49q-1.74-8.87-3.48-17.74c-1.16-5.85-2.56-11.72-3.24-17.66s.2-11.62-.31-17.43a43.62,43.62,0,0,0-4.1-14.94,38.91,38.91,0,0,0-1.88-3.48c-.08-.13-.27,0-.2.13a47.2,47.2,0,0,1,5.15,15.58,48.55,48.55,0,0,1,.43,8.17c-.08,2.93-.29,5.86-.15,8.8.28,5.86,1.65,11.63,2.77,17.37s2.3,11.71,3.46,17.56,2.33,11.82,3.49,17.73a134.76,134.76,0,0,0,4.14,17.07c1.87,5.58,4.06,11.07,6.15,16.57q3.21,8.49,6.44,17c4.31,11.25,8.53,22.54,13,33.71.52,1.31,1.05,2.6,1.62,3.88.08.17.35,0,.29-.13C429.79,376.46,427.56,370.82,425.43,365.17Z" style="fill: rgb(55, 71, 79); transform-origin: 408.182px 295.594px;" id="el2myqm6g0sav" class="animable"></path><path d="M437.9,385.08a29.51,29.51,0,0,0-3.47.79l-3.45.87c-2.25.59-4.51,1.17-6.76,1.77l-13.74,3.65c-2.58.68-5.14,1.45-7.68,2.25a.08.08,0,0,0,0,.16c9.29-1.83,18.46-4.4,27.59-6.93l3.91-1.12a29.54,29.54,0,0,0,3.67-1.17C438.17,385.28,438,385.07,437.9,385.08Z" style="fill: rgb(55, 71, 79); transform-origin: 420.391px 389.825px;" id="elzrn6desanvh" class="animable"></path><path d="M362.12,146.83c4.21,6.85,10.41,14.36,11.11,22.66.54,6.51-2.42,12.73-6.26,17.79-8.44,11.14-23.73,20.44-37.7,13.68-5.58-2.7-11.23-11.64-7.91-17.89,1.71-3.2,4.65-5.36,7.21-7.84a14.66,14.66,0,0,0,4.8-11.78c-.39-9.19-4-14.07-7.65-22.24a6.35,6.35,0,0,1-.37-5.14,11.42,11.42,0,0,1,3.2-5.12,11.32,11.32,0,0,1,4.3-3.4c3.65-1.55,8.73-.2,12.49.3a10.41,10.41,0,0,1,8.3,5.2C356.53,137.6,359.3,142.24,362.12,146.83Z" style="fill: rgb(38, 50, 56); transform-origin: 346.832px 165.038px;" id="ellssft8jd1fi" class="animable"></path><path d="M364.82,149.66c-4.26-6-8.63-12-13-17.93,0,0-.09,0-.06,0,3.42,5,6.77,10.08,10.27,15.05s7.27,9.65,10.25,14.8c6.69,11.58-2.7,23-13,27.93-.47.22-.06.94.41.7,8.87-4.62,17.66-13.38,15-24.35C373.37,159.89,368.3,154.59,364.82,149.66Z" style="fill: rgb(38, 50, 56); transform-origin: 363.463px 160.994px;" id="elgo11neahxlv" class="animable"></path><path d="M325.94,140.28c-.07-.12-.25,0-.19.12,3.27,6.59,7.69,14,7.13,21.6a18.61,18.61,0,0,1-4,10.28c-1.87,2.32-4.39,3.83-6.64,5.72-8.8,7.41-1.51,20.79,8.54,22,.21,0,.26-.33.05-.37-7.28-1.23-13-7.62-11.84-15.27.92-6.14,8-8.29,11.24-13.11C336.86,161.28,331.31,149.52,325.94,140.28Z" style="fill: rgb(38, 50, 56); transform-origin: 325.778px 170.115px;" id="elshltcds1mc9" class="animable"></path><path d="M349.74,169.69c-3.54,12.13-9.77,32.4-19.11,37.43-7.51,4-29.85,11.11-36.38,11.39-5.5.23-7.43-22.65-3-23.61,5.49-1.19,26.77-5.33,28.73-6.33,1.79-.92,10-10.66,21.61-22.59C348,159.38,351.51,163.64,349.74,169.69Z" style="fill: rgb(235, 148, 129); transform-origin: 319.499px 190.581px;" id="elhhw45elyy8l" class="animable"></path><path d="M300.79,216.09c-2.32,1.66-13.62,8.36-17.18,9.52s-14.06,3.75-15.23,1.12,1.85-3.65,1.85-3.65-4.6.4-5.53-2.37,3.8-4.17,3.8-4.17-4.76.06-5.49-2.76,4.27-3.44,4.27-3.44-4.35.26-4-2.32c.45-3.1,8.52-2.67,12.35-4.25.88-.35,17.15-8.51,17.15-8.51Z" style="fill: rgb(235, 148, 129); transform-origin: 281.864px 211.565px;" id="elg2fo5yxwxm8" class="animable"></path><path d="M266.85,210.4c5.94.3,8.59-.59,13.68-3.46.1-.05.21.08.11.15-4.74,3.26-7.9,4.86-13.82,3.6C266.53,210.63,266.57,210.39,266.85,210.4Z" style="fill: rgb(38, 50, 56); transform-origin: 273.65px 209.024px;" id="elizb2bn0inhi" class="animable"></path><path d="M268,216.51c6.19-.22,9.07-1.17,14.63-3.78.08,0,.15.1.08.14-5.24,3-8.43,4.54-14.65,3.95C267.81,216.79,267.75,216.52,268,216.51Z" style="fill: rgb(38, 50, 56); transform-origin: 275.289px 214.837px;" id="eljssrmhyga" class="animable"></path><path d="M270.51,222.94c6-.65,9.18-1.55,14.26-4.77a.11.11,0,0,1,.13.18c-4.86,3.79-8.85,4.94-14.35,4.77C270.17,223.11,270.13,223,270.51,222.94Z" style="fill: rgb(38, 50, 56); transform-origin: 277.595px 220.643px;" id="el1dt0t0w10ej" class="animable"></path><path d="M297.05,195.55s-7-2.4-10.37-2.78-16.25,2.81-15.72,5.64c.68,3.65,8.5,3.29,12.31,2.61,0,0,1.56,8.45,7.23,9.4S297.05,195.55,297.05,195.55Z" style="fill: rgb(235, 148, 129); transform-origin: 283.997px 201.6px;" id="elzp629n1vvjk" class="animable"></path><path d="M271.48,199.35c3,2.88,8,1.67,11.7,1.29a.35.35,0,0,1,.39.41c.89,3.5,3.17,8.17,6.74,9.5a.09.09,0,0,1-.05.17c-4-.91-6.63-5.32-7.37-9.21-3.83.45-8.83,1.45-11.44-2.13A0,0,0,0,1,271.48,199.35Z" style="fill: rgb(38, 50, 56); transform-origin: 280.905px 205.035px;" id="elgfvagamy6eg" class="animable"></path><path d="M343.22,192.65l-17.11-13.19s9.47-11.75,16.95-16.93,9.62-.12,7.51,8.49S343.22,192.65,343.22,192.65Z" style="fill: #FFC100; transform-origin: 338.725px 176.545px;" id="elih22xythxj8" class="animable"></path><g id="el4ikn0plelcq"><path d="M349.35,160.71l1.31,1.3a5.83,5.83,0,0,1,.56,1.78l-3.36-3.33A2.85,2.85,0,0,1,349.35,160.71Zm-4.31.63,6.18,6.14c0-.39.07-.76.09-1.13l-5.44-5.4C345.61,161.06,345.33,161.19,345,161.34Zm-2.29,1.42,7.91,7.85c.08-.34.15-.68.22-1l-7.4-7.35-.42.28Zm-2.09,1.6,9.24,9.17c.09-.32.17-.64.26-1l-8.82-8.75C341.11,164,340.88,164.17,340.66,164.36Zm-2,1.7,10.38,10.31c.1-.31.19-.63.29-1l-10-9.94Zm-1.92,1.77,11.41,11.33.3-.92-11.08-11Zm-1.87,1.84,12.34,12.25c.11-.3.22-.62.32-.92l-12-11.95Zm-1.21,1.25q-.32.32-.6.63l13.19,13.09.32-.9Zm-1.79,1.9-.59.64,14,13.88c.12-.29.23-.59.34-.9Zm-1.76,1.93-.57.66L344.26,190c.1-.28.22-.57.33-.89Zm-1.72,2-.56.67,15.32,15.22.06,0,.35-.87Zm-1.69,2c-.29.34-.47.58-.56.67l.41.41,5.57,4.29Z" style="opacity: 0.1; transform-origin: 338.725px 176.543px;" class="animable" id="eln0fom1oxefm"></path></g><path d="M329.36,177.05a137.54,137.54,0,0,1,14.44,11.34s-.06.14-.09.12c-4.12-2.86-11.89-9.16-14.48-11.28C329.18,177.19,329.31,177,329.36,177.05Z" style="fill: rgb(38, 50, 56); transform-origin: 336.509px 182.777px;" id="elch468lanti4" class="animable"></path><g id="elsxrcv0rti5k"><path d="M350.57,171c-2.11,8.61-7.35,21.63-7.35,21.63l-11.48-8.86,18.4-22.51C351.61,162.84,351.7,166.42,350.57,171Z" style="opacity: 0.1; transform-origin: 341.54px 176.945px;" class="animable" id="elv2duzb33s7"></path></g><path d="M343.75,216.14l49.17-9.89s-21.61-37.09-34.13-45.57c-5.7-3.85-10-2.08-13.09,1.93-.77,1-9.13,18.59-8.94,24,.17,4.79,5.06,9,5.06,9Z" style="fill: #FFC100; transform-origin: 364.838px 187.34px;" id="elwe71yxc5n3" class="animable"></path><path d="M348.4,192.08a36.08,36.08,0,0,1,6.41-.1c1.07.09,2.13.24,3.2.43l1.59.22a5.78,5.78,0,0,0,1.66,0c.05,0,.07.08,0,.09a8.79,8.79,0,0,1-1.53.29,8.69,8.69,0,0,1-1.53,0c-1.08-.09-2.16-.23-3.25-.33-2.19-.19-4.37-.39-6.55-.4C348.32,192.29,348.3,192.09,348.4,192.08Z" style="fill: rgb(38, 50, 56); transform-origin: 354.819px 192.463px;" id="eltklki8ggdzr" class="animable"></path><path d="M343.77,195.41a40.52,40.52,0,0,1,5.07-1.41c.86-.17,1.73-.28,2.6-.37l1.26-.09c.46,0,.93,0,1.39,0,.05,0,.07.09,0,.09-.43,0-.85.19-1.28.27l-1.29.23-2.58.48c-1.73.3-3.44.62-5.15,1C343.72,195.6,343.69,195.44,343.77,195.41Z" style="fill: rgb(38, 50, 56); transform-origin: 348.929px 194.575px;" id="eloqmv7wysh3q" class="animable"></path><polygon points="385.67 226.26 354.7 251.01 322.38 210.56 345.73 191.9 359.44 193.43 385.67 226.26" style="fill: rgb(69, 90, 100); transform-origin: 354.025px 221.455px;" id="elhhb1r1qvr87" class="animable"></polygon><polygon points="359.44 193.43 351.81 199.52 345.73 191.9 359.44 193.43" style="fill: rgb(38, 50, 56); transform-origin: 352.585px 195.71px;" id="ela7j3xdsw1v" class="animable"></polygon><path d="M340.93,219.09a3,3,0,1,0,.45-4.16A3,3,0,0,0,340.93,219.09Z" style="fill: rgb(255, 255, 255); transform-origin: 343.293px 217.241px;" id="eltk390c3ybbr" class="animable"></path><polygon points="352.69 226.5 368.35 213.99 352.88 210.68 352.69 226.5" style="fill: rgb(255, 255, 255); transform-origin: 360.52px 218.59px;" id="eltsyxfk4cit" class="animable"></polygon><polygon points="346.55 231.41 359.48 221.07 348.04 220.02 346.55 231.41" style="fill: rgb(235, 235, 235); transform-origin: 353.015px 225.715px;" id="el25q2titap" class="animable"></polygon><path d="M346.39,232.81,332.92,216l23.36-18.67,13.48,16.86Zm-10.66-16.54,11,13.73L367,213.83l-11-13.74Z" style="fill: rgb(255, 255, 255); transform-origin: 351.34px 215.07px;" id="elbgj8f5nw19r" class="animable"></path><path d="M360,236.81l-2.81-3.51a.41.41,0,0,1,.07-.59h0l1.93-1.54a.42.42,0,0,1,.59.07.42.42,0,0,1-.06.59l-1.61,1.29.87,1.09,1.38-1.11a.42.42,0,0,1,.59.07.42.42,0,0,1-.06.59l-1.39,1.11.88,1.09,1.61-1.29a.43.43,0,0,1,.59.08.41.41,0,0,1-.06.58l-1.93,1.54h0A.4.4,0,0,1,360,236.81Z" style="fill: rgb(255, 255, 255); transform-origin: 359.884px 234.026px;" id="elofo75nf1m8p" class="animable"></path><path d="M363.9,231.59l-.73.59,1,1.29a.41.41,0,0,1-.07.59.43.43,0,0,1-.59-.07l-2.8-3.51a.4.4,0,0,1,.07-.58h0l1.06-.85a1.63,1.63,0,1,1,2,2.55Zm-1.25-.07.73-.59a.79.79,0,1,0-1-1.23l-.73.59Z" style="fill: rgb(255, 255, 255); transform-origin: 362.613px 231.366px;" id="elu9xuovtkzvo" class="animable"></path><path d="M366.32,230.62a.39.39,0,0,1,.4-.39,2.55,2.55,0,0,0,1.5-.45,1.69,1.69,0,0,0,.57-.81.71.71,0,0,0-.09-.64.43.43,0,0,0-.21-.14.61.61,0,0,0-.32,0,3.12,3.12,0,0,0-1,.37h0a3.93,3.93,0,0,1-.95.38,1.6,1.6,0,0,1-.92,0,1.11,1.11,0,0,1-.53-.38,1.44,1.44,0,0,1-.22-1.25,2.22,2.22,0,0,1,.78-1.13,3,3,0,0,1,1.68-.57.41.41,0,0,1,.42.36.39.39,0,0,1-.36.43,2.23,2.23,0,0,0-1.26.38,1.48,1.48,0,0,0-.5.74.58.58,0,0,0,.07.55.47.47,0,0,0,.18.14.78.78,0,0,0,.28,0,2.39,2.39,0,0,0,.95-.33h0a4.73,4.73,0,0,1,1-.41,1.85,1.85,0,0,1,1,0,1.21,1.21,0,0,1,.54.39,1.48,1.48,0,0,1,.23,1.33,2.36,2.36,0,0,1-.83,1.22,3.26,3.26,0,0,1-2,.62A.39.39,0,0,1,366.32,230.62Z" style="fill: rgb(255, 255, 255); transform-origin: 367.06px 228.32px;" id="elcyxg2apc5mr" class="animable"></path><path d="M361.54,162.17c11.51,8.68,35,30.34,31.44,37.7-5.84,12.09-24.17,26.46-30.17,29.93-2.61,1.52-18.05-16-15.87-18.42,2.63-2.85,22.9-16.28,22.28-18.16-.36-1.06-5.35-9.4-10.69-20.41C352.33,160,356.06,158,361.54,162.17Z" style="fill: rgb(235, 148, 129); transform-origin: 370.037px 195.051px;" id="eli8ugyaokjkp" class="animable"></path><path d="M325.78,222.93a3.69,3.69,0,0,0,3,3,5.48,5.48,0,0,0-.3,3.72c.71,2.15,4.38,2,4.38,2a6.74,6.74,0,0,0,.32,4c.88,2,4.61,2.36,4.61,2.36a5.93,5.93,0,0,0,2.48,3.31c3.28,1.94,8.44-.75,11.74-2.42s11.09-9.52,12.72-10.86l-10.56-21.26s-16.93,3.3-20.52,5.82C330.57,214.69,325.4,220.07,325.78,222.93Z" style="fill: rgb(235, 148, 129); transform-origin: 345.245px 224.388px;" id="eleocini7q7sl" class="animable"></path><path d="M328.71,225.52c2.68-3,6.12-5.1,9.42-7.36.08,0,.15.07.08.12-3.32,2.21-6.15,5.05-9.37,7.39A.1.1,0,0,1,328.71,225.52Z" style="fill: rgb(38, 50, 56); transform-origin: 333.462px 221.923px;" id="elz2st982nl3" class="animable"></path><path d="M332.75,231.33a10.51,10.51,0,0,1,2.25-1.59c.83-.52,1.67-1,2.52-1.49q2.55-1.45,5.18-2.78c.07,0,.15.07.07.12-1.69,1-3.37,2-5,3-.83.52-1.65,1-2.47,1.58a12.38,12.38,0,0,1-2.38,1.4A.14.14,0,0,1,332.75,231.33Z" style="fill: rgb(38, 50, 56); transform-origin: 337.746px 228.534px;" id="el566eg7naxpr" class="animable"></path><path d="M337.82,237.93a7.27,7.27,0,0,1,2.1-1.33c.78-.42,1.57-.85,2.35-1.29,1.55-.86,3.11-1.73,4.64-2.65.08,0,.15.07.08.11-1.55.95-3.08,1.91-4.64,2.84-.76.46-1.53.91-2.3,1.36a6.79,6.79,0,0,1-2.19,1S337.79,238,337.82,237.93Z" style="fill: rgb(38, 50, 56); transform-origin: 342.416px 235.318px;" id="eltscs0czqzr" class="animable"></path><path d="M382.64,177.47l-18.51,11.15s-7.51-13.09-9.61-22,3.38-9,10.64-3.9S382.64,177.47,382.64,177.47Z" style="fill: #FFC100; transform-origin: 368.353px 173.964px;" id="elct1wgervs6m" class="animable"></path><g id="eln66u6l3n3dn"><path d="M355.11,160.15l1.68-.74a5.79,5.79,0,0,1,1.86.12l-4.32,1.92A2.85,2.85,0,0,1,355.11,160.15Zm-1,4.25,8-3.53c-.35-.18-.68-.35-1-.5l-7,3.11A7.59,7.59,0,0,0,354.13,164.4Zm.49,2.64,10.19-4.51L364,162l-9.54,4.22c0,.16.07.32.11.49A2.54,2.54,0,0,0,354.62,167Zm.72,2.53,11.91-5.27-.81-.59-11.36,5C355.16,169,355.25,169.3,355.34,169.57Zm.87,2.48,13.38-5.93-.78-.61-12.91,5.72C356,171.5,356.11,171.77,356.21,172.05Zm1,2.43,14.7-6.51-.75-.62-14.28,6.32Zm1,2.41,15.89-7-.74-.64-15.5,6.87C358,176.35,358.08,176.62,358.2,176.89Zm.72,1.58c.12.27.24.53.37.79l17-7.53-.72-.63Zm1.12,2.36c.13.27.25.53.38.78l18-8c-.22-.21-.46-.42-.71-.64Zm1.16,2.34.4.77,18.95-8.39-.71-.64Zm1.21,2.32c.14.27.28.53.42.76l19.74-8.74.06,0-.68-.64Zm1.25,2.3c.21.39.37.65.43.77l.52-.23,6-3.63Z" style="opacity: 0.1; transform-origin: 368.362px 173.971px;" class="animable" id="elqu03c4u19jo"></path></g><path d="M363.07,184.71a138.88,138.88,0,0,1,15.8-9.33s.11.11.08.13c-4.15,2.8-12.85,7.75-15.77,9.39C363.12,184.93,363,184.75,363.07,184.71Z" style="fill: rgb(38, 50, 56); transform-origin: 371.002px 180.142px;" id="el0r3m2m1uizk" class="animable"></path><path d="M357.71,177.93a0,0,0,0,1,.05,0c.49.62.95,1.25,1.4,1.9q-1-2.24-1.87-4.5c0-.06.06-.09.08,0,2.26,4.34,4.61,8.62,6.78,13,.5-.13,1-.26,1.5-.43a.07.07,0,0,1,.05.13c-.52.24-1,.52-1.53.81a.27.27,0,0,1-.37,0,69.27,69.27,0,0,1-4-7.56c-.29-.38-.58-.75-.84-1.14A17.64,17.64,0,0,1,357.71,177.93Z" style="fill: rgb(38, 50, 56); transform-origin: 361.514px 182.093px;" id="elj3sx5bnoqw" class="animable"></path><path d="M354.23,159.7c.18.89-1.29,7.86-5,9.36C348,169.54,345,163,345,163l-.32-.43-4.6-6.08,5.64-8.73.84-1.2s1.15,1.75,2.55,3.94l.2.31a3.75,3.75,0,0,1,.24.36c.21.32.43.65.64,1s.32.5.48.77.32.54.49.81A49.76,49.76,0,0,1,354.23,159.7Z" style="fill: rgb(235, 148, 129); transform-origin: 347.162px 157.823px;" id="eld6cs705edq" class="animable"></path><path d="M349.12,150.48a15.31,15.31,0,0,1-4.43,12.07l-4.6-6.08,5.64-8.73.84-1.2S347.72,148.29,349.12,150.48Z" style="fill: rgb(38, 50, 56); transform-origin: 344.63px 154.545px;" id="el0ioc4b3c63n9" class="animable"></path><path d="M324.46,148.34c1.69,13.28,9.83,13.76,12.69,13.4,2.6-.34,11.4-1.8,11.1-15.18s-7-16.79-13-16.34S322.77,135.07,324.46,148.34Z" style="fill: rgb(235, 148, 129); transform-origin: 336.222px 145.997px;" id="el8jj60btxsid" class="animable"></path><path d="M326,145.81a8.18,8.18,0,0,0,.87-.32,1.46,1.46,0,0,0,.82-.5.47.47,0,0,0-.09-.57,1.15,1.15,0,0,0-1.19-.1,1.7,1.7,0,0,0-1,.76A.51.51,0,0,0,326,145.81Z" style="fill: rgb(38, 50, 56); transform-origin: 326.549px 145.014px;" id="elakr4630h8kt" class="animable"></path><path d="M335.11,144.43c-.31,0-.61,0-.92-.06a1.51,1.51,0,0,1-.93-.23.47.47,0,0,1-.08-.58,1.16,1.16,0,0,1,1.11-.44,1.71,1.71,0,0,1,1.16.44A.51.51,0,0,1,335.11,144.43Z" style="fill: rgb(38, 50, 56); transform-origin: 334.357px 143.767px;" id="elh91pxrfeg3f" class="animable"></path><path d="M333.5,148s.08,0,.08.07c.09.91.34,1.93,1.19,2.13,0,0,0,.05,0,.05C333.76,150.23,333.44,148.86,333.5,148Z" style="fill: rgb(38, 50, 56); transform-origin: 334.132px 149.125px;" id="elkcg5yy0yv2" class="animable"></path><path d="M334.19,146.94c1.44-.29,1.92,2.61.59,2.88S333,147.19,334.19,146.94Z" style="fill: rgb(38, 50, 56); transform-origin: 334.531px 148.379px;" id="elsr9z82h2rss" class="animable"></path><path d="M334.79,147c.28.12.57.37.88.35s.58-.37.76-.7c0,0,.05,0,.06,0,.1.56,0,1.17-.6,1.35s-1-.26-1.24-.8C334.61,147.12,334.67,147,334.79,147Z" style="fill: rgb(38, 50, 56); transform-origin: 335.581px 147.345px;" id="elq85fshai4z" class="animable"></path><path d="M328.47,148.63s-.06.05-.05.09c.18.89.24,1.94-.52,2.38,0,0,0,.06,0,.05C328.89,150.84,328.79,149.44,328.47,148.63Z" style="fill: rgb(38, 50, 56); transform-origin: 328.296px 149.891px;" id="elc7yf0okbzr7" class="animable"></path><path d="M327.51,147.83c-1.46.14-1.07,3,.28,2.92S328.74,147.71,327.51,147.83Z" style="fill: rgb(38, 50, 56); transform-origin: 327.608px 149.289px;" id="elwqmpel89wyp" class="animable"></path><path d="M326.93,148.1c-.21.19-.4.5-.68.55s-.59-.22-.83-.49c0,0-.05,0,0,0,.05.56.32,1.12.87,1.16s.79-.5.85-1.07C327.11,148.17,327,148,326.93,148.1Z" style="fill: rgb(38, 50, 56); transform-origin: 326.269px 148.696px;" id="elp7w4ipsxuu8" class="animable"></path><path d="M334.83,155.35c-.17.25-.32.59-.64.68a2.46,2.46,0,0,1-1,0,0,0,0,0,0,0,.06,1.24,1.24,0,0,0,1.24.24,1,1,0,0,0,.53-.94A0,0,0,0,0,334.83,155.35Z" style="fill: rgb(38, 50, 56); transform-origin: 334.076px 155.876px;" id="el68hvxd1j9he" class="animable"></path><path d="M331.12,154.42a3.75,3.75,0,0,0,1.58,1,1.7,1.7,0,0,0,1,0c.71-.26.67-.93.48-1.49a4.19,4.19,0,0,0-.4-.85A4.88,4.88,0,0,1,331.12,154.42Z" style="fill: rgb(38, 50, 56); transform-origin: 332.709px 154.288px;" id="elur1hkez3ue" class="animable"></path><path d="M332.7,155.43a1.7,1.7,0,0,0,1,0c.71-.26.67-.93.48-1.49A1.73,1.73,0,0,0,332.7,155.43Z" style="fill: rgb(255, 151, 184); transform-origin: 333.499px 154.723px;" id="elkcyfkcyayom" class="animable"></path><path d="M330.56,152.67s0,1.38.12,2c0,.06.17.06.39,0h0a3.06,3.06,0,0,0,2.76-1.58c0-.06-.06-.12-.11-.07a4.61,4.61,0,0,1-2.63,1.21c-.08-.17,0-2.35-.06-2.34a5.21,5.21,0,0,0-1.39.55c-.13-2.87.2-5.72,0-8.57a.09.09,0,0,0-.18,0,46.75,46.75,0,0,0-.43,9.22C329.09,153.5,330.33,152.82,330.56,152.67Z" style="fill: rgb(38, 50, 56); transform-origin: 331.398px 149.247px;" id="el1cykxf5w14g" class="animable"></path><path d="M348.89,151.45a2.56,2.56,0,0,1-.57.29,2.09,2.09,0,0,1-.61.15,1.78,1.78,0,0,1-.81-.08,2.33,2.33,0,0,1-.57-.28,2.52,2.52,0,0,1-.66-.62l0-3.65s2-4.7,4-4.08S350.9,150.18,348.89,151.45Z" style="fill: rgb(235, 148, 129); transform-origin: 348.254px 147.515px;" id="elyzvaab0z7t" class="animable"></path><path d="M349.39,145a0,0,0,0,1,0,.05,5.76,5.76,0,0,0-2.14,4.12,1.25,1.25,0,0,1,1.76-.72s0,.09,0,.09a1.37,1.37,0,0,0-1.39.8,7,7,0,0,0-.46,1.36c0,.15-.3.13-.28,0v0C346.42,148.69,347.35,145.64,349.39,145Z" style="fill: rgb(38, 50, 56); transform-origin: 348.077px 147.903px;" id="elsqzhcfmfjdj" class="animable"></path><path d="M348.59,150.94a.62.62,0,0,1-.61.63.62.62,0,0,1-.63-.61.63.63,0,0,1,.62-.63A.61.61,0,0,1,348.59,150.94Z" style="fill: rgb(255, 255, 255); transform-origin: 347.97px 150.95px;" id="el9dru934eyj" class="animable"></path><path d="M349.64,149.76a.44.44,0,0,1-.43.44.44.44,0,0,1-.45-.43.44.44,0,0,1,.44-.44A.43.43,0,0,1,349.64,149.76Z" style="fill: rgb(255, 255, 255); transform-origin: 349.2px 149.765px;" id="el33ocm4jebxy" class="animable"></path><path d="M347.59,146.45c-2.14.58-3.45-4.37-3.45-4.37s-4.42.85-7.09-5.23a10,10,0,0,0,2.95,4.88s-8,1.14-12.52-4.76c0,0,1.94,3.08,3.39,4a9.34,9.34,0,0,1-5.54-2.65s-.65,4-1.51,5.27c0,0-2.26-13.71,10.65-14.66,0,0,8-1,12,4.75S347.59,146.45,347.59,146.45Z" style="fill: rgb(38, 50, 56); transform-origin: 336.131px 137.68px;" id="el1v9ql7bdl0o" class="animable"></path></g><g id="freepik--character-1--inject-75" class="animable" style="transform-origin: 163.042px 312.015px;"><path d="M257.9,433.05c-2,.61-59.52-1.29-61.66-2.76-.82-.54-1-8.93-1-19.08,0-.11,0-.21,0-.32,0-2.09.9-37.16.9-37.16l40.24,1.21-4,36.76,0,.63S254,422.9,256.18,424.76,259.93,432.45,257.9,433.05Z" style="fill: rgb(255, 196, 192); transform-origin: 227.041px 403.449px;" id="elfc8y4njoiat" class="animable"></path><path d="M257.9,433.05c-2,.61-59.52-1.29-61.66-2.76-.82-.54-1-8.93-1-19.08v-.32c0-.57,0-3.42.17-7.73l37.72,1.45-.78,7.09,0,.63s21.69,10.58,23.87,12.43S259.93,432.44,257.9,433.05Z" style="fill: rgb(235, 235, 235); transform-origin: 227.046px 418.164px;" id="elwprun2lpx1s" class="animable"></path><path d="M258.34,433.3c-2,.61-60.1-1.32-62.27-2.8-.83-.55-1-9-1-19.27l37.43,1.14s21.89,10.68,24.1,12.55S260.39,432.69,258.34,433.3Z" style="fill: #FFC100; transform-origin: 227.181px 422.323px;" id="el0xz548vi5rj" class="animable"></path><path d="M257.58,431c-9.72-.57-49-1.92-58.64-1.74-.08,0-.09.06,0,.06,9.63.77,48.91,1.81,58.65,1.84C257.78,431.11,257.79,431,257.58,431Z" style="fill: rgb(38, 50, 56); transform-origin: 228.306px 430.202px;" id="el7g8238i4aqx" class="animable"></path><path d="M252.93,422.71a7.85,7.85,0,0,0-5.9,2.18,7.56,7.56,0,0,0-2.34,5.13c0,.06.1.06.11,0a9,9,0,0,1,8.13-7.19A.06.06,0,1,0,252.93,422.71Z" style="fill: rgb(38, 50, 56); transform-origin: 248.84px 426.381px;" id="elrt6pmosf61d" class="animable"></path><path d="M236.24,413.47c-3.89-.19-8.45,1-11,4.14-.1.12.07.26.19.2A54,54,0,0,1,236.29,414,.24.24,0,0,0,236.24,413.47Z" style="fill: rgb(38, 50, 56); transform-origin: 230.869px 415.637px;" id="el8ba1la0umpk" class="animable"></path><path d="M239.21,414.74c-3.89-.19-8.46,1-11,4.14-.1.12.07.26.19.21a53.83,53.83,0,0,1,10.84-3.87A.24.24,0,0,0,239.21,414.74Z" style="fill: rgb(38, 50, 56); transform-origin: 233.822px 416.91px;" id="elwpkwska0flj" class="animable"></path><path d="M242.18,416c-3.9-.18-8.46,1-11,4.15-.1.12.07.25.19.2a53.83,53.83,0,0,1,10.84-3.87A.24.24,0,0,0,242.18,416Z" style="fill: rgb(38, 50, 56); transform-origin: 236.792px 418.172px;" id="eld1qu4n6n15m" class="animable"></path><path d="M245.14,417.28c-3.89-.18-8.45,1-11,4.15-.09.12.08.26.2.2a53.83,53.83,0,0,1,10.84-3.87A.24.24,0,0,0,245.14,417.28Z" style="fill: rgb(38, 50, 56); transform-origin: 239.757px 419.453px;" id="eltznry03rlw" class="animable"></path><path d="M201.72,420.05c-4.37-.13-4.58,6.66-.2,6.8S206.1,420.19,201.72,420.05Z" style="fill: rgb(38, 50, 56); transform-origin: 201.622px 423.45px;" id="el7sipzlyvsgq" class="animable"></path><path d="M240.8,403.21c-1.92-1.7-4.46-.18-5.73,1.47a20.51,20.51,0,0,0-3.87,9.85c0,.08.05.11.12.11a.48.48,0,0,0,.69.34c2.83-1.83,6.09-3.43,8.29-6.07C241.58,407.37,242.61,404.82,240.8,403.21Zm-5.06,8.12c-1.37.93-2.78,1.79-4.12,2.77a60.07,60.07,0,0,1,2.39-5.69,19.55,19.55,0,0,1,1.51-2.58c.89-1.26,4.82-4.39,5.06-.14C240.72,408,237.38,410.22,235.74,411.33Z" style="fill: rgb(38, 50, 56); transform-origin: 236.488px 408.749px;" id="eld5lsh7ffxz8" class="animable"></path><path d="M221.47,415.65c3.38.63,6.91-.22,10.26-.62a.48.48,0,0,0,.31-.7.11.11,0,0,0,0-.17,20.4,20.4,0,0,0-9.26-5.1c-2-.47-5,0-5.35,2.52S219.5,415.28,221.47,415.65Zm-2.27-2.3c-2.53-3.43,2.5-3.53,4-3.13a23,23,0,0,1,2.81,1,59.45,59.45,0,0,1,5.48,2.87c-1.66.09-3.29.33-4.95.49C224.55,414.79,220.59,415.24,219.2,413.35Z" style="fill: rgb(38, 50, 56); transform-origin: 224.748px 412.387px;" id="elzz16wywksm" class="animable"></path><path d="M235.62,408.9h-45s8-61.29,5.35-65.29c-.48-.72-10.51-.17-23.38-.52-18.63-.52-43.22-2.94-53.33-13.9-15.63-16.93.28-48.65.28-48.65h48s1,13.6,3.56,19c.1.21.63.37,1.52.51,8.91,1.37,53.93-.11,61.56,13.81C245.34,334.35,235.62,408.9,235.62,408.9Z" style="fill: rgb(55, 71, 79); transform-origin: 175.964px 344.72px;" id="el8wxlsm44vt6" class="animable"></path><path d="M195.35,400.34c5.08-.15,10.18-.35,15.26-.35s10.2.11,15.29.31c1.44.06,5.69.26,6.38.31a15.91,15.91,0,0,1,2.07.18c.08,0,.06.12,0,.13-1.11.2-12.63.33-15.16.33-5.06,0-10.12-.13-15.19-.31-2.88-.1-5.75-.21-8.63-.33C195.21,400.6,195.19,400.34,195.35,400.34Z" style="fill: rgb(38, 50, 56); transform-origin: 214.821px 400.62px;" id="el157szpmae8g" class="animable"></path><path d="M200.81,340.71a2.64,2.64,0,0,0-2.2-2.09,22,22,0,0,0-3.89-.08c-3,0-6,.06-9,.07-11.82,0-23.73-.31-35.35-2.64a82.42,82.42,0,0,1-16.53-5c-4.5-1.95-9-4.63-11.82-8.78-3.24-4.77-3.49-11-3.38-16.6a63.88,63.88,0,0,1,2.89-17.78q.69-2.19,1.56-4.32c0-.09-.1-.17-.13-.07a61.16,61.16,0,0,0-4.69,17.15,58.22,58.22,0,0,0-.4,8.76,33.38,33.38,0,0,0,1.11,8.5c3.06,10.45,14.77,14.77,24.25,17.43,11.39,3.19,23.28,4.08,35.07,4.26,5.93.08,11.86,0,17.78-.08,1.14,0,3-.34,3.67.85a6.59,6.59,0,0,1,.53,2.15c.13.84.22,1.68.29,2.52a71.12,71.12,0,0,1-.13,9.46q-.57,9.58-1.33,19.17c-.51,6.43-1.22,12.84-1.69,19.26-.11,1.58-.27,3.15-.42,4.72,0,.18.3.22.32,0,1.64-12.7,2.82-25.46,3.66-38.24.2-3.15.44-6.31.52-9.47A33.89,33.89,0,0,0,200.81,340.71Z" style="fill: rgb(38, 50, 56); transform-origin: 159.703px 340.547px;" id="elxy6vuc1s98" class="animable"></path><path d="M172.57,300.08v43c-18.63-.52-43.22-2.94-53.33-13.9-15.63-16.93.28-48.65.28-48.65h48s1,13.6,3.56,19C171.15,299.78,171.68,299.94,172.57,300.08Z" style="fill: rgb(38, 50, 56); transform-origin: 142.468px 311.805px;" id="elexjx9a7vvpa" class="animable"></path><path d="M44.12,430.62c.23-2.1,24.44-54.28,26.62-55.68.82-.55,8.63,2.54,18,6.54l.29.12c1.93.82,37.42,10.36,37.42,10.36l-15.73,34.15L73.75,415.44l-.57-.28S55,431,52.42,432.28,43.88,432.73,44.12,430.62Z" style="fill: rgb(255, 196, 192); transform-origin: 85.2815px 403.882px;" id="elpobafrm45q" class="animable"></path><path d="M95.74,383.59,79.56,417.11l-5.81-1.67-.57-.28S55,431,52.42,432.27s-8.55.46-8.3-1.64,24.44-54.3,26.62-55.69c.82-.55,8.63,2.53,18,6.54l.28.12C89.47,381.81,92.09,382.57,95.74,383.59Z" style="fill: rgb(235, 235, 235); transform-origin: 69.9262px 403.876px;" id="elen8yps4812k" class="animable"></path><path d="M43.91,430.88c.23-2.12,24.5-54.9,26.69-56.32.83-.55,8.73,2.54,18.16,6.54L73.21,415.17S54.88,431.22,52.3,432.52,43.68,433,43.91,430.88Z" style="fill: #FFC100; transform-origin: 66.3318px 403.82px;" id="elwtqu4u54ivb" class="animable"></path><path d="M46.37,431.1c4.28-8.75,20.74-44.43,24.31-53.4,0-.07,0-.1-.05,0C66.19,386.25,50,422.06,46.22,431,46.14,431.22,46.28,431.28,46.37,431.1Z" style="fill: rgb(38, 50, 56); transform-origin: 58.4381px 404.421px;" id="elo9lsx6aji2" class="animable"></path><path d="M55.76,430a7.83,7.83,0,0,0,.28-6.28,7.55,7.55,0,0,0-3.82-4.15s-.1.07,0,.1A9,9,0,0,1,55.65,430C55.63,430,55.73,430.07,55.76,430Z" style="fill: rgb(38, 50, 56); transform-origin: 54.3706px 424.801px;" id="elu99f1e4lkra" class="animable"></path><path d="M70.75,418.19c1.68-3.52,2.32-8.2.43-11.73-.07-.13-.26,0-.26.1a53.92,53.92,0,0,1-.63,11.49A.24.24,0,0,0,70.75,418.19Z" style="fill: rgb(38, 50, 56); transform-origin: 71.3064px 412.383px;" id="elnzt7cv8ahtr" class="animable"></path><path d="M68.43,420.44c1.68-3.52,2.32-8.2.43-11.73-.07-.14-.27,0-.26.1A54,54,0,0,1,68,420.3.24.24,0,0,0,68.43,420.44Z" style="fill: rgb(38, 50, 56); transform-origin: 69.0066px 414.592px;" id="elnx0xlsh10f" class="animable"></path><path d="M66.11,422.68c1.67-3.52,2.31-8.2.43-11.73-.07-.14-.27,0-.26.1a53.28,53.28,0,0,1-.64,11.49A.25.25,0,0,0,66.11,422.68Z" style="fill: rgb(38, 50, 56); transform-origin: 66.6624px 416.852px;" id="el4lwckq6at6" class="animable"></path><path d="M63.79,424.92c1.67-3.52,2.31-8.2.43-11.73-.08-.13-.27,0-.26.1a54.58,54.58,0,0,1-.64,11.49A.25.25,0,0,0,63.79,424.92Z" style="fill: rgb(38, 50, 56); transform-origin: 64.3424px 419.094px;" id="elxnmmdljvc8b" class="animable"></path><path d="M78.05,383.82c1.81-4-4.37-6.81-6.18-2.83S76.23,387.8,78.05,383.82Z" style="fill: rgb(38, 50, 56); transform-origin: 74.9598px 382.403px;" id="elro21de8d4k" class="animable"></path><path d="M78.44,426.36c2.31-1.11,1.9-4,.86-5.85a20.46,20.46,0,0,0-7.57-7.38.1.1,0,0,0-.15.07c-.29,0-.64.16-.58.5.58,3.33.79,6.95,2.38,10C74.31,425.47,76.26,427.41,78.44,426.36Zm-5.53-7.8c-.32-1.63-.57-3.26-1-4.88a60,60,0,0,1,4.33,4.41,22,22,0,0,1,1.8,2.39c.81,1.31,2.17,6.15-1.84,4.73C74,424.42,73.3,420.5,72.91,418.56Z" style="fill: rgb(38, 50, 56); transform-origin: 75.5626px 419.886px;" id="eliq48kbd0v7g" class="animable"></path><path d="M74.46,403.73c-1.89,2.87-2.48,6.45-3.4,9.7-.09.33.23.57.53.56a.1.1,0,0,0,.14.08A20.4,20.4,0,0,0,80,407.5c1.22-1.69,1.93-4.56-.25-5.9S75.56,402.06,74.46,403.73Zm3-1.21c4.14-1,2.29,3.67,1.34,4.89a22.12,22.12,0,0,1-2,2.19A57.83,57.83,0,0,1,72,413.54c.55-1.56,1-3.16,1.46-4.75C74.05,406.9,75.18,403.07,77.46,402.52Z" style="fill: rgb(38, 50, 56); transform-origin: 76.1002px 407.606px;" id="elbzcnzlc18we" class="animable"></path><path d="M168.06,280.56s2.72,12.94,2.56,19.53c0,0-6.6,10.65-7.6,11.28,0,0,22.38,62.95,20.93,86.36-.47,7.67-8.64,17.38-17.42,22.85-15.53,9.66-86.95,4.08-86.95,4.08l11-45.59s43,2.67,44.22.08c1.54-3.29-8-28.88-15.63-49.68-.77-2.1-8.44-9.85-7.55-23.87a72.6,72.6,0,0,1,6.6-25Z" style="fill: rgb(55, 71, 79); transform-origin: 131.799px 353.412px;" id="eli5gvpenj7pp" class="animable"></path><path d="M99.33,384.14c10.45-.19,19,.7,29.44.7h6.92a11.43,11.43,0,0,0,2.73-.25,3.35,3.35,0,0,0,2.1-1.25c.69-1,.32-2.35.08-3.48-.52-2.46-1.12-4.9-1.77-7.33-2.63-9.88-6.07-19.53-9.31-29.23l-5-15c-.41-1.22-.81-2.43-1.32-3.61a31.14,31.14,0,0,0-1.65-3.13,29.46,29.46,0,0,1-2.84-6.17c-2.83-9.3-.11-18.93,3.2-27.7q.66-1.77,1.38-3.51a.07.07,0,0,1,.14,0c-3,9.26-6.61,18.9-4.59,28.78a23.9,23.9,0,0,0,2.42,6.65c.58,1.06,1.21,2.09,1.78,3.16a25.72,25.72,0,0,1,1.45,3.37c1.78,4.91,3.35,9.9,5,14.85,3.3,9.84,6.78,19.65,9.53,29.67q1,3.74,1.88,7.52c.42,1.86,1.35,4.4-.27,5.94-1.19,1.12-3.06,1.26-4.61,1.27-2.61,0-5.21,0-7.82,0-10.61,0-27.58-.92-28.89-.94A.19.19,0,0,1,99.33,384.14Z" style="fill: rgb(38, 50, 56); transform-origin: 120.394px 334.75px;" id="eluq6ym3xpum" class="animable"></path><path d="M87.63,422.54c1-5.32,2-10.67,3.19-16s2.45-10.59,3.83-15.86c.39-1.48.79-3,1.18-4.45.19-.71.38-1.41.59-2.12a19.92,19.92,0,0,1,.65-2.12c0-.08.14,0,.13,0a29.93,29.93,0,0,1-.72,4.09c-.27,1.28-.51,2.57-.78,3.86q-.81,4-1.68,7.91c-1.15,5.28-2.46,10.52-3.81,15.75q-1.14,4.47-2.31,8.92A.14.14,0,0,1,87.63,422.54Z" style="fill: rgb(38, 50, 56); transform-origin: 92.4153px 402.294px;" id="elwz5a1srq4t" class="animable"></path><path d="M162,301.2c-.17-1.65-.32-3.29-.46-4.93-.31-3.75-.58-7.52-.6-11.27,0-.29.37-.24.4,0,.24,2.91.42,5.83.65,8.74s.39,5.83.81,8.7c.12.87.41,2.32,1.39,2.43,1.3.14,1.59-1.82,1.73-2.88a52.94,52.94,0,0,0,.3-8.07c-.07-3.08-.35-6.18-.59-9.26,0-.11.16-.11.18,0,1,6.05,1.94,12.37.87,18.36-.2,1.17-.7,2.39-1.81,2.7h-.06a.25.25,0,0,1,0,.11c0,.17,0,.34,0,.51s0,.29,0,.44c0,.3,0,.6,0,.9s-.35.25-.39,0a.17.17,0,0,1-.14-.16,5.2,5.2,0,0,1,.07-1.76,2,2,0,0,1-1.59-1.12A8.62,8.62,0,0,1,162,301.2Z" style="fill: rgb(38, 50, 56); transform-origin: 164.047px 296.232px;" id="el7z8lap2u069" class="animable"></path><path d="M168.62,303.49a77.09,77.09,0,0,0-8.57,10.25c-.1.15.09.32.21.18,3-3.32,6-6.61,8.76-10.09A.26.26,0,0,0,168.62,303.49Z" style="fill: rgb(38, 50, 56); transform-origin: 164.552px 308.685px;" id="elmi7u6gy8yv" class="animable"></path><path d="M130.05,301.75a18.87,18.87,0,0,0,3.1-.24,25.21,25.21,0,0,0,2.69-.68c1.66-.49,3.69-1.07,4.9-2.39a17.5,17.5,0,0,0,2.78-4.79,19.26,19.26,0,0,0,1.63-5.71c0-.09.15-.09.14,0a29.55,29.55,0,0,1-1,6.05,19.54,19.54,0,0,1-1.13,2.86,8,8,0,0,1-7,5.1,17,17,0,0,1-6.11,0C129.88,302,129.93,301.76,130.05,301.75Z" style="fill: rgb(38, 50, 56); transform-origin: 137.615px 295.05px;" id="elrk5vy8mweke" class="animable"></path><path d="M175.32,238.26c8.69,12.5,22,29,29.63,29.46,6,.36,23.5-7.22,36-15.46,2.51-1.65-16.57-22-18.18-20.58-4.74,4-16.15,14.77-17,14.2-1.15-.74-14.21-8-24-15.74C169.9,220.85,169.53,229.94,175.32,238.26Z" style="fill: rgb(255, 196, 192); transform-origin: 206.424px 246.978px;" id="elv2qsutd63a" class="animable"></path><path d="M240.29,252.57C243,251.41,255,245,257.88,242.48s10.83-10.41,9.12-12.84-4.2-.32-4.2-.32,2.81-3.86.86-6.16S258,224.3,258,224.3s2.59-4.17.49-6.33-5.32,1.93-5.32,1.93,2.55-3.7.07-4.75c-3-1.25-6.91,6.1-10.35,8.65-.78.58-16.68,10.59-16.68,10.59Z" style="fill: rgb(255, 196, 192); transform-origin: 246.724px 233.789px;" id="elkcu8wnufk7r" class="animable"></path><path d="M253.4,219.56c-2.9,5.4-5.11,7.26-10.36,10.23-.11.06,0,.23.07.18,5.41-2.44,8.52-4.38,10.56-10.29C253.77,219.4,253.54,219.3,253.4,219.56Z" style="fill: rgb(38, 50, 56); transform-origin: 248.344px 224.694px;" id="elkfh0eyd34jg" class="animable"></path><path d="M258.17,223.86c-3.51,5.35-5.88,7.39-11.16,10.91-.07,0,0,.18.08.14,5.47-3,8.52-5,11.32-10.83C258.54,223.82,258.33,223.62,258.17,223.86Z" style="fill: rgb(38, 50, 56); transform-origin: 252.716px 229.334px;" id="elnqtb0w7exbl" class="animable"></path><path d="M262.52,229.49c-3.76,4.93-6.27,7.28-11.83,10a.11.11,0,0,0,.09.21c5.94-2.26,9.09-5.17,11.88-10.12C262.85,229.28,262.76,229.18,262.52,229.49Z" style="fill: rgb(38, 50, 56); transform-origin: 256.692px 234.505px;" id="el11eo3avs5f8" class="animable"></path><polygon points="280.33 237.8 243.46 247.79 230.63 200.46 258.01 193.04 269.95 199.49 280.33 237.8" style="fill: rgb(235, 235, 235); transform-origin: 255.48px 220.415px;" id="eltno0cjtv8k" class="animable"></polygon><polygon points="258.01 193.04 269.95 199.49 260.45 202.06 258.01 193.04" style="fill: rgb(219, 219, 219); transform-origin: 263.98px 197.55px;" id="eljx8rkaiqa09" class="animable"></polygon><g id="elr2v4e339h6e"><rect x="236.18" y="204.63" width="21.24" height="1.26" style="fill: rgb(219, 219, 219); transform-origin: 246.8px 205.26px; transform: rotate(-195.005deg);" class="animable" id="el4z5pbxgjs8m"></rect></g><g id="elwrack084ss"><rect x="237.01" y="207.7" width="21.24" height="1.26" style="fill: rgb(219, 219, 219); transform-origin: 247.63px 208.33px; transform: rotate(-195.005deg);" class="animable" id="elkkjsjsu8igr"></rect></g><g id="elstoj4q7gc1i"><rect x="237.84" y="210.77" width="21.24" height="1.26" style="fill: rgb(219, 219, 219); transform-origin: 248.46px 211.4px; transform: rotate(-195.005deg);" class="animable" id="elf7cv39j7pv7"></rect></g><g id="el4w6rzpgdm7m"><rect x="238.5" y="212.54" width="31.12" height="1.26" style="fill: rgb(219, 219, 219); transform-origin: 254.06px 213.17px; transform: rotate(164.83deg);" class="animable" id="el7ohyor01nps"></rect></g><g id="elnafu9bke1ad"><rect x="239.33" y="215.61" width="31.12" height="1.26" style="fill: rgb(219, 219, 219); transform-origin: 254.89px 216.24px; transform: rotate(-195.005deg);" class="animable" id="elvr5v278bute"></rect></g><g id="eldbq0sg1x1r"><rect x="240.16" y="218.68" width="31.12" height="1.26" style="fill: rgb(219, 219, 219); transform-origin: 255.72px 219.31px; transform: rotate(-195.005deg);" class="animable" id="elhpa0la23um"></rect></g><g id="elhg1ohdurizr"><rect x="240.99" y="221.74" width="31.12" height="1.26" style="fill: rgb(219, 219, 219); transform-origin: 256.55px 222.37px; transform: rotate(164.83deg);" class="animable" id="ely8qhgfjxa8"></rect></g><g id="elspe3kqjmf7e"><rect x="241.83" y="224.81" width="31.12" height="1.26" style="fill: rgb(219, 219, 219); transform-origin: 257.39px 225.44px; transform: rotate(164.83deg);" class="animable" id="el73lva4cefo9"></rect></g><g id="eluputysx7yph"><rect x="242.66" y="227.88" width="31.12" height="1.26" style="fill: rgb(219, 219, 219); transform-origin: 258.22px 228.51px; transform: rotate(-195.005deg);" class="animable" id="elmtlpzlkyqm"></rect></g><g id="el1wu2ezi9lzx"><rect x="243.49" y="230.95" width="31.12" height="1.26" style="fill: rgb(219, 219, 219); transform-origin: 259.05px 231.58px; transform: rotate(-195.005deg);" class="animable" id="el4frq03kul83"></rect></g><g id="el32v3j2u9zpk"><rect x="244.32" y="234.01" width="31.12" height="1.26" style="fill: rgb(219, 219, 219); transform-origin: 259.88px 234.64px; transform: rotate(-195.005deg);" class="animable" id="elouzzt09fx69"></rect></g><g id="elgscm41xkq99"><rect x="245.15" y="237.08" width="31.12" height="1.26" style="fill: rgb(219, 219, 219); transform-origin: 260.71px 237.71px; transform: rotate(-195.005deg);" class="animable" id="elsguxbhzs1mc"></rect></g><polygon points="282.18 240.28 247.3 259.12 222.69 213.56 248.99 199.35 262.21 203.3 282.18 240.28" style="fill: #FFC100; transform-origin: 252.435px 229.235px;" id="elsif3r6tt67" class="animable"></polygon><g id="eluim54p0xagp"><polygon points="282.18 240.28 247.3 259.12 222.69 213.56 248.99 199.35 262.21 203.3 282.18 240.28" style="fill: rgb(255, 255, 255); opacity: 0.6; transform-origin: 252.435px 229.235px;" class="animable" id="elicg5dlc5kt9"></polygon></g><polygon points="262.21 203.3 253.63 207.94 248.99 199.35 262.21 203.3" style="fill: #FFC100; transform-origin: 255.6px 203.645px;" id="elydt7q1y8s9" class="animable"></polygon><path d="M239.43,225.26a3,3,0,1,0,1.18-4A3,3,0,0,0,239.43,225.26Z" style="fill: #FFC100; transform-origin: 242.089px 223.87px;" id="el25je6hyw8bz" class="animable"></path><polygon points="249.68 234.64 267.32 225.11 252.69 219.11 249.68 234.64" style="fill: #FFC100; transform-origin: 258.5px 226.875px;" id="el4vd7x50fsb9" class="animable"></polygon><polygon points="242.77 238.38 257.33 230.51 246.26 227.43 242.77 238.38" style="fill: #FFC100; transform-origin: 250.05px 232.905px;" id="elbkhfjil6sl6" class="animable"></polygon><g id="elte01u28lho"><polygon points="242.77 238.38 257.33 230.51 246.26 227.43 242.77 238.38" style="opacity: 0.1; transform-origin: 250.05px 232.905px;" class="animable" id="el433047ttnfb"></polygon></g><path d="M242.36,239.73l-10.25-19,26.31-14.21,10.26,19Zm-7.54-18.18L243.17,237,266,224.71l-8.36-15.47Z" style="fill: #FFC100; transform-origin: 250.395px 223.125px;" id="elnxhahnlstvc" class="animable"></path><path d="M252.15,245.43a1,1,0,0,0,1.65-1.25l-1.43-2.66a.41.41,0,0,1,.17-.57.42.42,0,0,1,.57.16l1.44,2.66a1.9,1.9,0,0,1-3,2.27.41.41,0,0,1,0-.59A.41.41,0,0,1,252.15,245.43Z" style="fill: #FFC100; transform-origin: 253.107px 243.744px;" id="eljxvhof04m7i" class="animable"></path><path d="M257.11,242.18l-.83.45.79,1.45a.42.42,0,0,1-.18.57.41.41,0,0,1-.56-.17l-2.14-3.95a.42.42,0,0,1,.17-.57h0l1.19-.64a1.63,1.63,0,1,1,1.55,2.86Zm-1.23-.29.83-.45a.78.78,0,0,0,.32-1.06.79.79,0,0,0-1.07-.32l-.82.44Z" style="fill: #FFC100; transform-origin: 256.094px 241.885px;" id="el1cur955nzvm" class="animable"></path><path d="M260.23,242.37l-2.13-4a.41.41,0,0,1,.17-.57h0l2.17-1.17a.42.42,0,0,1,.4.74l-1.82,1,.67,1.22,1.56-.84a.42.42,0,0,1,.4.74l-1.56.84.66,1.24,1.82-1a.42.42,0,0,1,.57.17.43.43,0,0,1-.17.57l-2.17,1.17h0A.41.41,0,0,1,260.23,242.37Z" style="fill: #FFC100; transform-origin: 260.616px 239.565px;" id="elnmcblqg3zg" class="animable"></path><path d="M262.9,238.3a2.81,2.81,0,0,1,3-4.05.43.43,0,0,1,.37.5.44.44,0,0,1-.51.35,2,2,0,0,0-1.25.21,1.84,1.84,0,0,0-.94,1.14,1.79,1.79,0,0,0,1.25,2.32,1.87,1.87,0,0,0,1.47-.16,2.16,2.16,0,0,0,.78-.75l-.5-.92-1,.52a.45.45,0,0,1-.59-.18.44.44,0,0,1,.18-.58l1.32-.71h0a.43.43,0,0,1,.59.17l.8,1.48a.56.56,0,0,1,0,.12v0h0a.39.39,0,0,1,0,.23,2.82,2.82,0,0,1-1.24,1.34A2.76,2.76,0,0,1,262.9,238.3Z" style="fill: #FFC100; transform-origin: 265.238px 236.941px;" id="elx9tx0mmycdb" class="animable"></path><path d="M221.26,233.73s4.5-6.23,7.09-8.53,15.35-7.32,16.6-4.63c1.6,3.49-5.2,7.84-8.81,9.54,0,0,3.72,8.06-.49,12.24S221.26,233.73,221.26,233.73Z" style="fill: rgb(255, 196, 192); transform-origin: 233.225px 231.493px;" id="el5ebx37jkp9d" class="animable"></path><path d="M245.08,221.68c-.83,4.23-5.72,6.15-9.1,8.06a.36.36,0,0,0-.08.58c1.33,3.48,2.2,8.78,0,12a.09.09,0,0,0,.14.11c2.85-3.17,2.42-8.44.71-12.16,3.5-1.9,8.31-4.05,8.38-8.62C245.12,221.66,245.08,221.65,245.08,221.68Z" style="fill: rgb(38, 50, 56); transform-origin: 240.459px 232.052px;" id="eloqr6c8vwi" class="animable"></path><path d="M219.54,233.63,237,256.8s-27.19,14-35.44,12.42c-4.82-.92-22.31-22.2-29.15-33.9-3.72-6.34-3.31-12.21,4.2-9,7.25,3.14,27.24,17.82,28.86,17.59S219.54,233.63,219.54,233.63Z" style="fill: #FFC100; transform-origin: 203.559px 247.379px;" id="el4oqv60ss6ig" class="animable"></path><path d="M208.34,256.59a7.66,7.66,0,0,0,0,5.06,7.34,7.34,0,0,0,0-5.06Zm4.95-10.47a7,7,0,0,0-2.53.45,6.82,6.82,0,0,0,2.53.44,6.51,6.51,0,0,0,2.52-.44A6.52,6.52,0,0,0,213.29,246.12Zm-12.77,21.53a7.61,7.61,0,0,0-1.57.16c.36.27.7.51,1,.7l.56,0a6.75,6.75,0,0,0,2.53-.44A6.39,6.39,0,0,0,200.52,267.65Zm-16.93-24.27a6.75,6.75,0,0,0-2.1-1.48,7.31,7.31,0,0,0,3.58,3.58A7.1,7.1,0,0,0,183.59,243.38Zm44.76,2.88a6.34,6.34,0,0,0-2.1-1.48,6.94,6.94,0,0,0,1.47,2.11,6.87,6.87,0,0,0,2.12,1.47A7.18,7.18,0,0,0,228.35,246.26Zm-32.77,6a6.64,6.64,0,0,0-1.48,2.1,7.38,7.38,0,0,0,3.58-3.59A6.78,6.78,0,0,0,195.58,252.27Zm26.8,5.81a6.64,6.64,0,0,0-1.48,2.1,6.66,6.66,0,0,0,2.1-1.47,6.84,6.84,0,0,0,1.48-2.12A6.67,6.67,0,0,0,222.38,258.08Zm-27.55-20.53a5.86,5.86,0,0,0,.4,1.84,6.06,6.06,0,0,0,.36-1.34Z" style="fill: rgb(255, 255, 255); transform-origin: 205.665px 253.026px;" id="el7mzhp7ve71j" class="animable"></path><path d="M229.49,257.15a44.45,44.45,0,0,1-3.53-4.33c-1.11-1.45-2.2-2.9-3.29-4.36s-2.11-2.88-3.14-4.34L218,241.89l-.83-1.21a15.75,15.75,0,0,0-.92-1.38.07.07,0,1,1,.11-.08c.3.46.71.85,1,1.28l.86,1.06c.59.73,1.18,1.47,1.76,2.21,1.12,1.44,2.22,2.88,3.3,4.35s2.12,2.87,3.16,4.32a42.23,42.23,0,0,1,3.13,4.63C229.65,257.14,229.55,257.21,229.49,257.15Z" style="fill: rgb(38, 50, 56); transform-origin: 222.913px 248.175px;" id="elujf80u19h6d" class="animable"></path><g id="ela8tsg1xyh9f"><path d="M190.62,259.67l-.21-.24c-6.56-7.38-14.08-17.34-18-24.1-2.68-4.57-3.21-8.88-.51-9.73Z" style="opacity: 0.1; transform-origin: 180.369px 242.635px;" class="animable" id="el2glolmqf3g7"></path></g><path d="M113.43,285c.07.2,56.68,21.71,57.41,21.32,1-.55,11.35-66.76,8.39-76.54-.63-2.09-4.57-4.08-8.22-5a16,16,0,0,0-2.89-.46H168a6.68,6.68,0,0,0-2.34.22c-12.63,4.09-31,28.11-36,35.52C121.51,272.34,113.16,284.34,113.43,285Z" style="fill: #FFC100; transform-origin: 146.592px 265.311px;" id="elvhxiduymkw" class="animable"></path><path d="M162.72,267.34a6.64,6.64,0,0,0-1.48,2.1,6.66,6.66,0,0,0,2.1-1.47,7,7,0,0,0,1.48-2.12A6.83,6.83,0,0,0,162.72,267.34Zm-20.56,24.4a6.78,6.78,0,0,0-1.47,2.1,6.9,6.9,0,0,0,2.1-1.47,7,7,0,0,0,1.47-2.1A6.61,6.61,0,0,0,142.16,291.74Zm-14.57-26.46a6.73,6.73,0,0,0-1.47,2.1,7,7,0,0,0,2.1-1.47,6.78,6.78,0,0,0,1.47-2.1A6.9,6.9,0,0,0,127.59,265.28ZM131.8,281a6.41,6.41,0,0,0-2.1-1.47,7,7,0,0,0,1.47,2.1,6.78,6.78,0,0,0,2.1,1.47A6.78,6.78,0,0,0,131.8,281ZM152,242.4a7,7,0,0,0-2.1-1.47,6.61,6.61,0,0,0,1.47,2.1,6.82,6.82,0,0,0,2.11,1.47A7.1,7.1,0,0,0,152,242.4Zm22.39,36.49a6.84,6.84,0,0,0-2.53.43,7.1,7.1,0,0,0,2.53.46c.33,0,.66,0,1-.07,0-.25.07-.5.11-.75A8,8,0,0,0,174.43,278.89Zm-7.08-28a7.27,7.27,0,0,0-2.53.45,7.49,7.49,0,0,0,5.06,0A7.23,7.23,0,0,0,167.35,250.84Zm-49.91,35.1a7.81,7.81,0,0,0-1.43.15l1.89.73h0a6.08,6.08,0,0,0,2.06-.43A7.23,7.23,0,0,0,117.44,285.94Zm30.7-9.85a7,7,0,0,0-2.52.45,7.47,7.47,0,0,0,5,0A7,7,0,0,0,148.14,276.09Zm11.92,11a6.66,6.66,0,0,0-.44,2.53,6.87,6.87,0,0,0,.44,2.54,7.32,7.32,0,0,0,.45-2.54A7.08,7.08,0,0,0,160.06,287.05Zm-13.84-29a6.82,6.82,0,0,0-.44,2.53,6.7,6.7,0,0,0,.44,2.52,6.71,6.71,0,0,0,.45-2.52A6.83,6.83,0,0,0,146.22,258Zm30.26,2.53a7.31,7.31,0,0,0,0,5,7.47,7.47,0,0,0,0-5Zm-8.23-29.83a7.52,7.52,0,0,0,0,5.07,7.37,7.37,0,0,0,0-5.07Z" style="fill: rgb(255, 255, 255); transform-origin: 146.42px 262.34px;" id="elyj1bk3gt3q" class="animable"></path><path d="M175.8,236.26c-3.11-.11-7.45-6.5-8.44-10.66-.06-.29,1-2.8,2.22-5.92.72-1.89,1.47-4,2-6l11.65,6.45a33,33,0,0,0-3.3,7.31,5.26,5.26,0,0,0-.14.84.36.36,0,0,1,0,.14C179.61,230,178.81,236.36,175.8,236.26Z" style="fill: rgb(255, 196, 192); transform-origin: 175.294px 224.971px;" id="ellpss9x86py" class="animable"></path><path d="M172,213.9c-.43,2.68-1.26,11.83,6.49,14.23a7.61,7.61,0,0,0,1.3.28c0-.06,0-.1,0-.14a4.29,4.29,0,0,1,.13-.84,32.85,32.85,0,0,1,3.3-7.3Z" style="fill: rgb(38, 50, 56); transform-origin: 177.48px 221.155px;" id="el6kk7zvou5c7" class="animable"></path><path d="M187.17,196.71s3.91,1.66,4.6,5.65-.24,8.15-.59,8.35S187.17,196.71,187.17,196.71Z" style="fill: rgb(38, 50, 56); transform-origin: 189.594px 203.711px;" id="el2aql7witaow" class="animable"></path><path d="M169.8,201.64c-1.36,4.6,1.17,17.83,4.45,20.75,4.76,4.25,12.51,4.6,16.1-1.12,3.49-5.54-.11-22.72-3.78-25.38C181.17,192,171.81,194.85,169.8,201.64Z" style="fill: rgb(255, 196, 192); transform-origin: 180.597px 209.853px;" id="elj3g4s6f1mt" class="animable"></path><path d="M182.49,210.15s-.06,0-.05.09c.2.88.27,1.93-.48,2.38,0,0,0,.06,0,0C182.93,212.35,182.82,211,182.49,210.15Z" style="fill: rgb(38, 50, 56); transform-origin: 182.343px 211.398px;" id="elo2pctzm5tb8" class="animable"></path><path d="M181.53,209.36c-1.46.16-1,3.06.31,2.91S182.74,209.23,181.53,209.36Z" style="fill: rgb(38, 50, 56); transform-origin: 181.638px 210.816px;" id="elw79gdk7n0xe" class="animable"></path><path d="M188,209.22s.08,0,.08.07c.11.9.38,1.92,1.23,2.1a0,0,0,0,1,0,.05C188.28,211.44,187.94,210.09,188,209.22Z" style="fill: rgb(38, 50, 56); transform-origin: 188.652px 210.33px;" id="el6l4s0nijw4r" class="animable"></path><path d="M188.65,208.17c1.43-.32,2,2.56.64,2.85S187.45,208.44,188.65,208.17Z" style="fill: rgb(38, 50, 56); transform-origin: 189.015px 209.593px;" id="elt5vejupo5td" class="animable"></path><path d="M180.19,208.21c.38-.16.7-.37,1.06-.56a2,2,0,0,0,1-.78.63.63,0,0,0-.21-.73,1.52,1.52,0,0,0-1.55.07,2.26,2.26,0,0,0-1.15,1.15A.67.67,0,0,0,180.19,208.21Z" style="fill: rgb(38, 50, 56); transform-origin: 180.798px 207.103px;" id="ely2tu5jjgsqs" class="animable"></path><path d="M189.56,206.55c-.41,0-.79-.09-1.2-.14a1.91,1.91,0,0,1-1.19-.36.62.62,0,0,1-.08-.75,1.55,1.55,0,0,1,1.47-.51,2.27,2.27,0,0,1,1.49.65A.67.67,0,0,1,189.56,206.55Z" style="fill: rgb(38, 50, 56); transform-origin: 188.607px 205.656px;" id="eli5zapqobrvs" class="animable"></path><path d="M182.91,218.3a1.34,1.34,0,0,0,.83.41,2.47,2.47,0,0,0,.93-.36,0,0,0,0,1,.05,0,1.24,1.24,0,0,1-1.07.65,1,1,0,0,1-.83-.69S182.87,218.27,182.91,218.3Z" style="fill: rgb(38, 50, 56); transform-origin: 183.77px 218.644px;" id="el20y3xg6m0pr" class="animable"></path><path d="M183.46,215.47a3.05,3.05,0,0,0,2.24,1.06,3.74,3.74,0,0,0,1.1-.11l.21,0,.19-.06a.23.23,0,0,0,.15-.23h0a.36.36,0,0,0,0-.1h0v-.08c-.09-.69-.31-1.74-.31-1.74.27.09,1.65.49,1.57.13a46.57,46.57,0,0,0-2.53-9.08.08.08,0,0,0-.16,0c.47,2.87,1.45,5.64,2,8.51a5.66,5.66,0,0,0-1.51-.23c-.09.05.47,2,.48,2.32v0a4.3,4.3,0,0,1-3.31-.52C183.45,215.34,183.39,215.41,183.46,215.47Z" style="fill: rgb(38, 50, 56); transform-origin: 186.022px 210.857px;" id="elt9qzg4iwlhl" class="animable"></path><path d="M172.72,212.41s-3.12-4.2-5-3.07.51,7.26,2.82,8a2.32,2.32,0,0,0,3.07-1.33Z" style="fill: rgb(255, 196, 192); transform-origin: 170.326px 213.333px;" id="ellcscxwl3tej" class="animable"></path><path d="M168.43,211.08a0,0,0,0,0,0,.06,5.88,5.88,0,0,1,3.13,3.59,1.27,1.27,0,0,0-1.92-.3s0,.1,0,.08a1.46,1.46,0,0,1,1.59.46,7.33,7.33,0,0,1,.79,1.25c.07.14.33.06.27-.11v0C172.29,214,170.62,211.22,168.43,211.08Z" style="fill: rgb(38, 50, 56); transform-origin: 170.364px 213.686px;" id="el0j44pewcjr0k" class="animable"></path><path d="M171.36,212.26c2.31-.47,2-6.38,2-6.38s2.83-1.27,3.41-6.7c0,0,2.32,5.16,11.93,3.36a8.36,8.36,0,0,0-1-5,34.44,34.44,0,0,1,2.78,5.06s1.8-8.2-5.26-10.59c-2.8-.95-6.94-.45-13,3.08,0,0-1.46-3.7-2.15-3.16s.93,4,.93,4-2.83-.68-3.26-.07S170,196.9,170,196.9a5.51,5.51,0,0,0-3.13,6.48C167.79,207.82,170.22,212.49,171.36,212.26Z" style="fill: rgb(38, 50, 56); transform-origin: 178.684px 201.928px;" id="elp6lzd2416os" class="animable"></path><path d="M170.74,196.78a5,5,0,0,0-4.84,4.57,9.31,9.31,0,0,0,.85,4.15,17.61,17.61,0,0,0,2.31,3.81c.05.07.15,0,.09-.09a13.52,13.52,0,0,1-1.89-3.61,12.55,12.55,0,0,1-.86-3.81,4.82,4.82,0,0,1,4.36-4.87C170.84,196.92,170.82,196.78,170.74,196.78Z" style="fill: rgb(38, 50, 56); transform-origin: 168.354px 203.059px;" id="elhoan97oswjf" class="animable"></path><path d="M179.55,191a19.57,19.57,0,0,0-4.63,2.05,14.33,14.33,0,0,0-3.75,3c0,.07,0,.15.09.1a25.48,25.48,0,0,1,8.06-4.38c2.68-1,5.9-1.17,8.13.92,0,0,.09,0,.05-.06C185.5,190.45,182.26,190.27,179.55,191Z" style="fill: rgb(38, 50, 56); transform-origin: 179.34px 193.39px;" id="el14q22yj8o7b" class="animable"></path><path d="M155.8,230.76c-12.63,10-40.28,33.31-36.42,41.59,6.35,13.62,26.7,29.74,33.32,34,2.85,1.82,20.45-17.68,18-20.38-2.89-3.24-23-18.53-22.77-19.65s8.85-15.55,13.71-27.39C167.7,224.19,161.08,226.57,155.8,230.76Z" style="fill: rgb(255, 196, 192); transform-origin: 144.974px 267.021px;" id="eljiidvnmb6e" class="animable"></path><path d="M166.42,283s9.07,6.47,15,9.73c3.33,1.83,8.75,5.46,10.59,7.92,2.74,3.67,11.85,20.79,7.75,23.09-3.72,2.08-9.68-13.62-9.68-13.62s7.42,15.31,2.48,17-9.31-17-9.31-17,7.27,15.91,1.91,16.84c-4.05.7-9-16-9-16s6.15,13.72,2,14.62c-4.57,1-10.07-14.09-10.07-14.09-10.9.52-17-6.65-20.53-10.11C146.8,300.62,166.42,283,166.42,283Z" style="fill: rgb(255, 196, 192); transform-origin: 174.171px 305.114px;" id="elgghq2vyrhof" class="animable"></path><path d="M188.33,305.55c3.56,6.55,5.59,14,5.89,17.08,0,.38.06.71.06.69-1.22-3.83-5.25-15.9-6-17.75C188.24,305.53,188.31,305.51,188.33,305.55Z" style="fill: rgb(38, 50, 56); transform-origin: 191.274px 314.425px;" id="eljwwu92e2ejn" class="animable"></path><path d="M181.17,307.33c3.41,4.57,5,11.58,5.82,14,.07.19-.05.16-.12,0-.93-2.37-4.72-11.62-5.75-13.94C181.1,307.31,181.15,307.3,181.17,307.33Z" style="fill: rgb(38, 50, 56); transform-origin: 184.063px 314.388px;" id="elxqb2fy33vx" class="animable"></path><path d="M175.26,309.18a26.6,26.6,0,0,1,3.93,10.37c0,.2-.1.14-.17-.05-1.32-3.67-2.07-6-3.88-10.25C175.11,309.18,175.21,309.11,175.26,309.18Z" style="fill: rgb(38, 50, 56); transform-origin: 177.162px 314.413px;" id="el9mn82oprrya" class="animable"></path><path d="M171.51,284.67l-21.37,24.62s-31.48-30.26-31.59-38.6,30.1-36.26,38.32-41.37,9.45-1.72,7,6.1S148.38,266,148.4,266.48,171.51,284.67,171.51,284.67Z" style="fill: #FFC100; transform-origin: 145.03px 268.091px;" id="eltxb8myd47sg" class="animable"></path><path d="M146.22,258a6.82,6.82,0,0,0-.44,2.53,6.7,6.7,0,0,0,.44,2.52,6.71,6.71,0,0,0,.45-2.52A6.83,6.83,0,0,0,146.22,258Zm13.84,29a6.66,6.66,0,0,0-.44,2.53,6.87,6.87,0,0,0,.44,2.54,7.32,7.32,0,0,0,.45-2.54A7.08,7.08,0,0,0,160.06,287.05Zm-11.92-11a7,7,0,0,0-2.52.45,7.47,7.47,0,0,0,5,0A7,7,0,0,0,148.14,276.09Zm-13.62-27.22h0l-.75.76a6,6,0,0,0,2-.42A5.17,5.17,0,0,0,134.52,248.87ZM152,242.4a7,7,0,0,0-2.1-1.47,6.61,6.61,0,0,0,1.47,2.1,6.82,6.82,0,0,0,2.11,1.47A7.1,7.1,0,0,0,152,242.4ZM131.8,281a6.41,6.41,0,0,0-2.1-1.47,7,7,0,0,0,1.47,2.1,6.78,6.78,0,0,0,2.1,1.47A6.78,6.78,0,0,0,131.8,281Zm21,22.08a6.61,6.61,0,0,0-2.1-1.47,6.9,6.9,0,0,0,1.47,2.1,7.07,7.07,0,0,0,1.72,1.28l.18-.2A6.57,6.57,0,0,0,152.77,303.09Zm-25.18-37.81a6.73,6.73,0,0,0-1.47,2.1,7,7,0,0,0,2.1-1.47,6.78,6.78,0,0,0,1.47-2.1A6.9,6.9,0,0,0,127.59,265.28Zm14.57,26.46a6.78,6.78,0,0,0-1.47,2.1,6.9,6.9,0,0,0,2.1-1.47,7,7,0,0,0,1.47-2.1A6.61,6.61,0,0,0,142.16,291.74Z" style="fill: rgb(255, 255, 255); transform-origin: 143.33px 272.96px;" id="elo2ecutvzm6i" class="animable"></path><path d="M172,284.55c.11-.14-22-17.23-23.35-18.39,2.12-3.36,4-6.89,5.85-10.4.6-1.14,1.18-2.28,1.76-3.43.38-.49.76-1,1.12-1.5.6-.9,1.16-1.82,1.68-2.77a0,0,0,0,0-.07,0c-.62.88-1.25,1.76-1.86,2.65l-.06.09a3.59,3.59,0,0,1,.17-.34c.43-.86.85-1.72,1.26-2.59l.58-1.27a7.93,7.93,0,0,1,.4-.83c.21-.36,0-.18.24-.68,0-.05-.06-.08-.09,0-.42.72-.1,0-.46.81-.1.21-.24.41-.35.62-.22.41-.44.82-.67,1.23l-1.43,2.7q-1.37,2.59-2.76,5.18c-1.91,3.51-3.92,7-5.77,10.51a.21.21,0,0,0,0,.24.18.18,0,0,0,.06.14c1.34,1.19,21.9,17.33,23.1,18.33l-.38.46c-.14.2-.29.38-.43.57s0,.18.1.11.33-.37.48-.56A8.93,8.93,0,0,0,172,284.55Z" style="fill: rgb(38, 50, 56); transform-origin: 160.076px 265.538px;" id="ellrw573y49pr" class="animable"></path><path d="M155,292.09c1.5-1.7,7.57-8.44,9.2-10,0,0,.08,0,.06,0-1.27,1.79-7.06,8.62-8.57,10.33a124.56,124.56,0,0,1-9.3,9.92c-.06.05-.17,0-.12-.09C148.92,298.7,152,295.44,155,292.09Z" style="fill: rgb(38, 50, 56); transform-origin: 155.26px 292.225px;" id="elrnk5nqfpkgl" class="animable"></path><path d="M135.49,294.26c-.71-.79-1.34-1.67-2-2.49l-2-2.48c-1.35-1.61-2.67-3.25-4-4.89s-2.59-3.31-3.88-5c-.65-.84-1.29-1.69-1.93-2.55a18.53,18.53,0,0,0-2-2.51.07.07,0,0,0-.11.07,14.74,14.74,0,0,0,1.66,2.51c.62.87,1.25,1.74,1.88,2.6,1.27,1.72,2.57,3.41,3.91,5.09s2.69,3.32,4.06,5c.69.81,1.4,1.62,2.12,2.41s1.49,1.54,2.19,2.35A.07.07,0,1,0,135.49,294.26Z" style="fill: rgb(38, 50, 56); transform-origin: 127.542px 284.358px;" id="elfj4jjkw0n3g" class="animable"></path></g><g id="freepik--Folder--inject-75" class="animable" style="transform-origin: 250px 348.175px;"><rect x="162.67" y="324.49" width="153.59" height="111.56" style="fill: #FFC100; transform-origin: 239.465px 380.27px;" id="elxd9io4r5aij" class="animable"></rect><polygon points="259.17 312.94 316.19 312.94 316.2 324.49 255.91 324.49 259.17 312.94" style="fill: #FFC100; transform-origin: 286.055px 318.715px;" id="el9zbsoln5sww" class="animable"></polygon><g id="elttbut2xyc"><g style="opacity: 0.2; transform-origin: 239.465px 374.495px;" class="animable" id="eltkyqqnp1qpk"><rect x="162.67" y="324.49" width="153.59" height="111.56" id="elszr2iw1hqt" class="animable" style="transform-origin: 239.465px 380.27px;"></rect><polygon points="259.17 312.94 316.19 312.94 316.2 324.49 255.91 324.49 259.17 312.94" id="el7q3warm1rkr" class="animable" style="transform-origin: 286.055px 318.715px;"></polygon></g></g><polygon points="224.86 334.8 184.24 342.43 174.44 290.28 204.6 284.62 216.92 292.58 224.86 334.8" style="fill: rgb(235, 235, 235); transform-origin: 199.65px 313.525px;" id="el7jmhhtws9ou" class="animable"></polygon><polygon points="204.6 284.62 216.92 292.58 206.46 294.55 204.6 284.62" style="fill: rgb(219, 219, 219); transform-origin: 210.76px 289.585px;" id="el3ls2iwrwggx" class="animable"></polygon><g id="elh690stggsco"><rect x="179.97" y="296.15" width="22.98" height="1.36" style="fill: rgb(219, 219, 219); transform-origin: 191.46px 296.83px; transform: rotate(169.36deg);" class="animable" id="el8161eybfon9"></rect></g><g id="eljxdt67l6ojf"><rect x="180.61" y="299.53" width="22.98" height="1.36" style="fill: rgb(219, 219, 219); transform-origin: 192.1px 300.21px; transform: rotate(169.36deg);" class="animable" id="elx31twgr6th"></rect></g><g id="elqpgj84czase"><rect x="181.24" y="302.91" width="22.98" height="1.36" style="fill: rgb(219, 219, 219); transform-origin: 192.73px 303.59px; transform: rotate(169.36deg);" class="animable" id="elbcmqxkowb17"></rect></g><g id="el931a0vhosj"><rect x="181.78" y="305.31" width="33.67" height="1.36" style="fill: rgb(219, 219, 219); transform-origin: 198.615px 305.99px; transform: rotate(169.36deg);" class="animable" id="elk7yumgkoiw"></rect></g><g id="el5ieow9tqnru"><rect x="182.42" y="308.69" width="33.67" height="1.36" style="fill: rgb(219, 219, 219); transform-origin: 199.255px 309.37px; transform: rotate(169.36deg);" class="animable" id="el9ox31m821jq"></rect></g><g id="el4a654h04qns"><rect x="183.05" y="312.07" width="33.67" height="1.36" style="fill: rgb(219, 219, 219); transform-origin: 199.885px 312.75px; transform: rotate(169.36deg);" class="animable" id="elc3emm1bq1oq"></rect></g><g id="el9g4cx9g9j24"><rect x="183.69" y="315.44" width="33.67" height="1.36" style="fill: rgb(219, 219, 219); transform-origin: 200.525px 316.12px; transform: rotate(169.36deg);" class="animable" id="el9go0fct9ab5"></rect></g><path d="M197.6,326.77l-1.29.24.82,4.32a.45.45,0,0,1-.37.53.44.44,0,0,1-.52-.36l-.82-4.32-1.28.24a.47.47,0,0,1-.53-.37.45.45,0,0,1,.37-.53l3.45-.65a.45.45,0,0,1,.53.36A.47.47,0,0,1,197.6,326.77Z" style="fill: rgb(219, 219, 219); transform-origin: 195.784px 328.865px;" id="elngs2xu1xra" class="animable"></path><path d="M203.42,325.54l-1.15,2.38,1.93,1.81a.45.45,0,0,1,0,.64.49.49,0,0,1-.24.14.48.48,0,0,1-.4-.12l-1.71-1.62-1,2.13a.43.43,0,0,1-.32.25.36.36,0,0,1-.27,0,.43.43,0,0,1-.22-.59l1.14-2.4-1.93-1.8a.44.44,0,0,1,0-.63.43.43,0,0,1,.63,0l1.72,1.61,1-2.12a.44.44,0,0,1,.6-.22A.45.45,0,0,1,203.42,325.54Z" style="fill: rgb(219, 219, 219); transform-origin: 201.725px 328.065px;" id="el7opbtw4nrda" class="animable"></path><path d="M208.7,324.68l-1.29.24.81,4.33a.45.45,0,0,1-.36.53.46.46,0,0,1-.53-.36l-.81-4.33-1.28.24a.46.46,0,0,1-.17-.9l3.46-.65a.46.46,0,0,1,.17.9Z" style="fill: rgb(219, 219, 219); transform-origin: 206.885px 326.782px;" id="elbfro1ncyoxe" class="animable"></path><polygon points="279.95 324.72 238.22 314.81 251.16 260.3 282.62 267.77 290.45 280.47 279.95 324.72" style="fill: #FFC100; transform-origin: 264.335px 292.51px;" id="el4zu0a9t102t" class="animable"></polygon><g id="el5wegn6bzskm"><polygon points="279.95 324.72 238.22 314.81 251.16 260.3 282.62 267.77 290.45 280.47 279.95 324.72" style="fill: rgb(255, 255, 255); opacity: 0.6; transform-origin: 264.335px 292.51px;" class="animable" id="el02khdfqtm9gc"></polygon></g><polygon points="290.45 280.47 280.19 278.04 282.62 267.77 290.45 280.47" style="fill: #FFC100; transform-origin: 285.32px 274.12px;" id="el6ngza638e4f" class="animable"></polygon><path d="M256.25,281.8a3.2,3.2,0,1,0,3.84-2.39A3.18,3.18,0,0,0,256.25,281.8Z" style="fill: #FFC100; transform-origin: 259.366px 282.525px;" id="elseghttsxj0k" class="animable"></path><polygon points="257.77 296.76 278.87 301.77 271.38 286.38 257.77 296.76" style="fill: #FFC100; transform-origin: 268.32px 294.075px;" id="elceu2wvu9blf" class="animable"></polygon><polygon points="249.49 294.8 266.92 298.94 260.2 288.48 249.49 294.8" style="fill: #FFC100; transform-origin: 258.205px 293.71px;" id="elrqm0be8uaa" class="animable"></polygon><g id="el0e8i6swdkf97"><polygon points="249.49 294.8 266.92 298.94 260.2 288.48 249.49 294.8" style="opacity: 0.1; transform-origin: 258.205px 293.71px;" class="animable" id="eleb7z6lbeaoh"></polygon></g><path d="M279.62,303l-31.33-7.44L253.64,273,285,280.42Zm-28.92-8.92,27.43,6.51,4.43-18.67-27.43-6.51Z" style="fill: #FFC100; transform-origin: 266.645px 288px;" id="ellsne2t2282" class="animable"></path><path d="M254.19,307.35a3,3,0,0,1,5.32-1.13.47.47,0,0,1-.06.67.5.5,0,0,1-.67-.08,2.15,2.15,0,0,0-1.16-.74,2,2,0,0,0-1.58.25,1.94,1.94,0,0,0-.94,1.25,2,2,0,0,0,.28,1.52,2.07,2.07,0,0,0,1.3.93,2.31,2.31,0,0,0,1.17,0l.26-1.1L257,308.6a.47.47,0,0,1-.35-.56.45.45,0,0,1,.56-.34l1.58.37h0a.47.47,0,0,1,.36.56l-.42,1.78-.06.13,0,0h0a.37.37,0,0,1-.2.16,3,3,0,0,1-2,.19A3,3,0,0,1,254.19,307.35Z" style="fill: #FFC100; transform-origin: 256.875px 308.003px;" id="el52f3cujywa2" class="animable"></path><path d="M261.57,306.68a.44.44,0,0,1,.54-.34.47.47,0,0,1,.35.55l-1.13,4.73a.45.45,0,0,1-.55.33.44.44,0,0,1-.34-.54Z" style="fill: #FFC100; transform-origin: 261.448px 309.145px;" id="el1zhiu8ywiiw" class="animable"></path><path d="M262.83,312l1.13-4.72a.44.44,0,0,1,.54-.34h0l2.59.61a.47.47,0,0,1,.34.55.46.46,0,0,1-.55.34l-2.17-.51-.35,1.46,1.87.45a.45.45,0,0,1,.33.54.46.46,0,0,1-.54.35l-1.87-.45-.46,1.93a.45.45,0,0,1-.55.33A.46.46,0,0,1,262.83,312Z" style="fill: #FFC100; transform-origin: 265.129px 309.74px;" id="el06xrz1wu2ct3" class="animable"></path><polygon points="275.46 358.01 250.37 325.17 292.54 292.95 311.17 317.34 309.59 331.94 275.46 358.01" style="fill: rgb(235, 235, 235); transform-origin: 280.77px 325.48px;" id="elmhgcc3dd9d" class="animable"></polygon><polygon points="311.17 317.34 309.59 331.94 303.13 323.48 311.17 317.34" style="fill: rgb(219, 219, 219); transform-origin: 307.15px 324.64px;" id="el1ycg4zf5oek" class="animable"></polygon><g id="elqotjzvnsnjc"><rect x="282.85" y="310.43" width="22.98" height="1.36" style="fill: rgb(219, 219, 219); transform-origin: 294.34px 311.11px; transform: rotate(-127.38deg);" class="animable" id="el1bav0an49xxi"></rect></g><g id="elul1jb2rp1je"><rect x="280.12" y="312.51" width="22.98" height="1.36" style="fill: rgb(219, 219, 219); transform-origin: 291.61px 313.19px; transform: rotate(-127.38deg);" class="animable" id="el4n84xhtllyi"></rect></g><g id="eloynppdzg5i"><rect x="277.39" y="314.6" width="22.98" height="1.36" style="fill: rgb(219, 219, 219); transform-origin: 288.88px 315.28px; transform: rotate(-127.38deg);" class="animable" id="el5bawo6z93p"></rect></g><g id="el3oiijuedn0f"><rect x="272.55" y="320.94" width="33.67" height="1.36" style="fill: rgb(219, 219, 219); transform-origin: 289.385px 321.62px; transform: rotate(-127.38deg);" class="animable" id="elz8ojvfw1zdb"></rect></g><g id="elsrhcvlkusb"><rect x="269.82" y="323.03" width="33.67" height="1.36" style="fill: rgb(219, 219, 219); transform-origin: 286.655px 323.71px; transform: rotate(-127.38deg);" class="animable" id="elp1iw8d6iv1p"></rect></g><g id="ele01x4gpbns7"><rect x="267.09" y="325.11" width="33.67" height="1.36" style="fill: rgb(219, 219, 219); transform-origin: 283.925px 325.79px; transform: rotate(-127.38deg);" class="animable" id="elkanjln4vn4"></rect></g><g id="el5zsurap4qxw"><rect x="264.36" y="327.2" width="33.67" height="1.36" style="fill: rgb(219, 219, 219); transform-origin: 281.195px 327.88px; transform: rotate(-127.38deg);" class="animable" id="elfctw016jhxh"></rect></g><g id="elhgfbke1eom"><rect x="261.62" y="329.29" width="33.67" height="1.36" style="fill: rgb(219, 219, 219); transform-origin: 278.455px 329.97px; transform: rotate(-127.38deg);" class="animable" id="elq4ftxednht"></rect></g><g id="elc7lo61tdla"><rect x="258.89" y="331.38" width="33.67" height="1.36" style="fill: rgb(219, 219, 219); transform-origin: 275.725px 332.06px; transform: rotate(-127.38deg);" class="animable" id="elwflb0siwmdn"></rect></g><g id="el6kryinyqmao"><rect x="256.16" y="333.46" width="33.67" height="1.36" style="fill: rgb(219, 219, 219); transform-origin: 272.995px 334.14px; transform: rotate(-127.38deg);" class="animable" id="el66tziqn1hqq"></rect></g><g id="el7ip95x0h8vj"><rect x="253.42" y="335.55" width="33.67" height="1.36" style="fill: rgb(219, 219, 219); transform-origin: 270.255px 336.23px; transform: rotate(-127.38deg);" class="animable" id="elwqb9jvhlf68"></rect></g><g id="elp9usf312i2i"><rect x="250.69" y="337.64" width="33.67" height="1.36" style="fill: rgb(219, 219, 219); transform-origin: 267.525px 338.32px; transform: rotate(-127.38deg);" class="animable" id="elwec6swmyc0o"></rect></g><polygon points="261.48 334.81 219.52 343.7 207.91 288.89 239.54 282.18 252.06 290.32 261.48 334.81" style="fill: rgb(69, 90, 100); transform-origin: 234.695px 312.94px;" id="el6ypfxaucfn8" class="animable"></polygon><polygon points="252.06 290.32 241.73 292.51 239.54 282.18 252.06 290.32" style="fill: rgb(38, 50, 56); transform-origin: 245.8px 287.345px;" id="elpd42oeerx5" class="animable"></polygon><path d="M228.65,314.32a1.15,1.15,0,0,1,.32,1.6,1.19,1.19,0,0,1-.73.48,1.25,1.25,0,0,1-.88-.16l-6-4.1c-.06,0-.08,0-.11-.09l-.06,0c-.05,0-.05-.09-.08-.14a.11.11,0,0,1-.07-.06s0-.08-.06-.1,0-.06-.05-.08l0-.12a.66.66,0,0,1,0-.11v-.09l0-.12s0-.06,0-.08a.76.76,0,0,1,0-.15s0,0,0,0,0-.13.05-.18a0,0,0,0,1,0,0,.34.34,0,0,1,.08-.14l4-6.05a1.19,1.19,0,0,1,1.6-.31,1.15,1.15,0,0,1,.31,1.6l-3.39,5.07Z" style="fill: rgb(255, 255, 255); transform-origin: 225.046px 310.279px;" id="els2yzqbpdb7" class="animable"></path><path d="M231.67,315l2.67-12.77a1.15,1.15,0,0,1,1.36-.88,1.11,1.11,0,0,1,.84,1.33l-2.65,12.79a1.16,1.16,0,0,1-.9.87,1,1,0,0,1-.42,0A1.11,1.11,0,0,1,231.67,315Z" style="fill: rgb(255, 255, 255); transform-origin: 234.105px 308.844px;" id="elx3dxnig723" class="animable"></path><path d="M247.26,307a0,0,0,0,1,0,0,.61.61,0,0,1-.1.14l-4,6.05a1.15,1.15,0,0,1-1.91-1.29l3.39-5.08-5.05-3.42a1.16,1.16,0,0,1-.31-1.61,1.18,1.18,0,0,1,1.6-.31l6,4.1a.78.78,0,0,1,.15.1s0,0,0,0,.09.09.12.14,0,0,0,0a1.51,1.51,0,0,0,.09.14s0,0,0,.06l0,.12a.59.59,0,0,0,0,.08.34.34,0,0,0,0,.1l0,.14s0,0,0,0,0,.13,0,.17,0,0,0,.06S247.28,306.87,247.26,307Z" style="fill: rgb(255, 255, 255); transform-origin: 243.173px 307.495px;" id="el3m9k7y1r2r3" class="animable"></path><path d="M228.57,332.28l-1-4.75a.46.46,0,1,1,.89-.19l.41,1.93,2.09-.44-.41-1.93a.45.45,0,0,1,.35-.54.47.47,0,0,1,.55.35l1,4.75a.44.44,0,0,1-.35.54.45.45,0,0,1-.54-.35l-.41-1.93-2.09.44.41,1.93a.46.46,0,0,1-.36.54A.44.44,0,0,1,228.57,332.28Z" style="fill: rgb(255, 255, 255); transform-origin: 230.002px 329.497px;" id="eled3rq1nk6qq" class="animable"></path><path d="M236.82,326l-1.28.27.91,4.3a.45.45,0,0,1-.35.54.46.46,0,0,1-.54-.35l-.91-4.3-1.27.27a.46.46,0,0,1-.54-.36.45.45,0,0,1,.35-.54l3.44-.73a.46.46,0,0,1,.54.35A.47.47,0,0,1,236.82,326Z" style="fill: rgb(255, 255, 255); transform-origin: 235.004px 328.105px;" id="elzuyvjkbk5cf" class="animable"></path><path d="M243.35,324.18l1,4.76a.47.47,0,0,1-.36.54.46.46,0,0,1-.54-.35l-.72-3.4-.82,1.86a.43.43,0,0,1-.32.26h0a.5.5,0,0,1-.42-.11l-1.49-1.37.72,3.4a.45.45,0,0,1-.36.53.44.44,0,0,1-.53-.34l-1-4.76a.46.46,0,0,1,.35-.54h0a.43.43,0,0,1,.4.11l2.07,1.88,1.13-2.56a.46.46,0,0,1,.33-.26h0A.47.47,0,0,1,243.35,324.18Z" style="fill: rgb(255, 255, 255); transform-origin: 241.429px 327.065px;" id="elnea0kkkme8" class="animable"></path><path d="M246.31,328.52l-1-4.75a.46.46,0,0,1,.35-.54.47.47,0,0,1,.55.35l.91,4.3,2.18-.46a.46.46,0,0,1,.54.36.45.45,0,0,1-.35.53l-2.61.56h0A.44.44,0,0,1,246.31,328.52Z" style="fill: rgb(255, 255, 255); transform-origin: 247.575px 326.056px;" id="elaov8hsnr8iu" class="animable"></path><polygon points="162.62 436.05 316.2 436.05 335.39 333.75 181.81 333.75 162.62 436.05" style="fill: #FFC100; transform-origin: 249.005px 384.9px;" id="elddnr81n6um4" class="animable"></polygon><polygon points="280.36 323.15 337.38 323.15 335.39 333.75 275.1 333.75 280.36 323.15" style="fill: #FFC100; transform-origin: 306.24px 328.45px;" id="elh66cxq3yn4" class="animable"></polygon><polygon points="280.49 399.39 218.41 403.48 222.4 366.69 284.48 362.6 280.49 399.39" style="fill: rgb(255, 255, 255); transform-origin: 251.445px 383.04px;" id="ela6tntnsjq3j" class="animable"></polygon><polygon points="218.34 361.99 223.16 359.02 227.96 369.11 223.14 372.08 218.34 361.99" style="fill: rgb(219, 219, 219); transform-origin: 223.15px 365.55px;" id="elc6lwmrq2rl" class="animable"></polygon><polygon points="276.19 395.74 281.01 392.78 285.81 402.87 280.99 405.83 276.19 395.74" style="fill: rgb(219, 219, 219); transform-origin: 281px 399.305px;" id="elxgvm6gq5wz" class="animable"></polygon><polygon points="290.74 357.47 286.49 355.1 279.42 365.97 283.66 368.34 290.74 357.47" style="fill: rgb(219, 219, 219); transform-origin: 285.08px 361.72px;" id="elvgo97di6mig" class="animable"></polygon><polygon points="224.73 398.88 220.49 396.51 213.41 407.39 217.66 409.75 224.73 398.88" style="fill: rgb(219, 219, 219); transform-origin: 219.07px 403.13px;" id="elwm4n9ker9s" class="animable"></polygon><path d="M248.65,377.53l-9,11.32,6.82-.45a1,1,0,0,1,1.06,1.13,1.48,1.48,0,0,1-1.32,1.27l-9.13.6a.76.76,0,0,1-.21,0s-.05,0-.06,0l-.15,0s0,0-.06-.06l-.1,0-.08,0v0a.07.07,0,0,1-.06,0,.44.44,0,0,1-.08-.1.28.28,0,0,1-.08-.06.41.41,0,0,0-.05-.09c0-.06,0-.08,0-.1s-.06-.06,0-.1,0-.09,0-.13,0,0,0-.09,0-.1,0-.15a.13.13,0,0,0,0-.06v0a.3.3,0,0,1,0-.15.54.54,0,0,1,0-.11s0-.07.06-.11a1,1,0,0,1,0-.11.17.17,0,0,0,.07-.09l.08-.12h0l9-11.34-6.84.45a1,1,0,0,1-1-1.13,1.45,1.45,0,0,1,1.3-1.27l9.13-.6h.17l.08,0c.06,0,.08,0,.12,0s.07,0,.09,0a.08.08,0,0,1,.09.05l.1.06h0s0,0,.06.06.06.06.08.08,0,.06.05.08a.16.16,0,0,1,.08.08.23.23,0,0,0,.05.11s0,.06,0,.08a.38.38,0,0,0,0,.13s0,.06,0,.11a.57.57,0,0,1,0,.12.22.22,0,0,0,0,.09c0,.07,0,.11,0,.15a.15.15,0,0,0,0,.09c0,.06,0,.09-.06.13l-.05.13s0,.05-.05.07a.35.35,0,0,1-.08.11Z" style="fill: rgb(55, 71, 79); transform-origin: 242.523px 383.643px;" id="elzoi7ztcz7f" class="animable"></path><path d="M252.44,376.57a1.42,1.42,0,0,1,1.29-1.26,1,1,0,0,1,1.06,1.1l-1.38,12.74a1.48,1.48,0,0,1-1.32,1.26.94.94,0,0,1-1-1.11Z" style="fill: rgb(55, 71, 79); transform-origin: 252.935px 382.86px;" id="el6uar782noc" class="animable"></path><path d="M262.84,383.88l-2.61.17-.51,4.68a1.48,1.48,0,0,1-1.31,1.27,1,1,0,0,1-1-1.11l1.38-12.74a1.46,1.46,0,0,1,1.3-1.26h0l3.77-.25a3.73,3.73,0,0,1,4.05,4.34A5.68,5.68,0,0,1,262.84,383.88Zm-2.35-2.23,2.61-.17a2.74,2.74,0,0,0,2.44-2.35,1.8,1.8,0,0,0-2-2.09l-2.61.17Z" style="fill: rgb(55, 71, 79); transform-origin: 262.684px 382.311px;" id="eloj7t57mfbia" class="animable"></path></g><g id="freepik--speech-bubble--inject-75" class="animable" style="transform-origin: 292.415px 137.253px;"><path d="M270.91,139.3a19.54,19.54,0,0,0,32.65,12.36l9.78,1.43-4.89-8.45a19.55,19.55,0,1,0-37.54-5.34Z" style="fill: rgb(255, 255, 255); transform-origin: 292.071px 137.252px;" id="elgc6u6jyfmhp" class="animable"></path><path d="M276.76,123.16a19.51,19.51,0,0,1,16.37-5.44,19.76,19.76,0,0,1,15.67,27.07l0-.34,4.87,8.47.36.63-.71-.11-9.77-1.5.23-.07a19.72,19.72,0,0,1-9.67,4.77,17.53,17.53,0,0,1-2.7.28,19,19,0,0,1-2.72,0,19.43,19.43,0,0,1-5.26-1.26,19,19,0,0,1-4.71-2.62,21.52,21.52,0,0,1-2.07-1.75,20.22,20.22,0,0,1-1.77-2,19.65,19.65,0,0,1,1.91-26Zm-1.85,26a17.61,17.61,0,0,0,3.84,3.74,18.09,18.09,0,0,0,4.72,2.54,19.06,19.06,0,0,0,5.22,1.15,18.3,18.3,0,0,0,2.67,0,15.72,15.72,0,0,0,2.65-.32,19.18,19.18,0,0,0,9.36-4.82l.1-.09.13,0,9.79,1.37-.35.52-4.92-8.44-.1-.16.07-.17a19.53,19.53,0,0,0,1.38-8.52,19.31,19.31,0,0,0-2.48-8.27,20,20,0,0,0-5.85-6.37,19,19,0,0,0-8.07-3.19,19.38,19.38,0,0,0-8.69.65,19.32,19.32,0,0,0-9.47,30.36Z" style="fill: rgb(38, 50, 56); transform-origin: 292.415px 137.253px;" id="elhy3cgllk3o" class="animable"></path><polygon points="287.84 148.41 279.49 139.96 282.3 137.19 287.17 142.13 297.3 126.24 300.63 128.36 287.84 148.41" style="fill: #FFC100; transform-origin: 290.06px 137.325px;" id="elh8h4vnf8kb" class="animable"></polygon></g><defs>     <filter id="active" height="200%">         <feMorphology in="SourceAlpha" result="DILATED" operator="dilate" radius="2"></feMorphology>                <feFlood flood-color="#32DFEC" flood-opacity="1" result="PINK"></feFlood>        <feComposite in="PINK" in2="DILATED" operator="in" result="OUTLINE"></feComposite>        <feMerge>            <feMergeNode in="OUTLINE"></feMergeNode>            <feMergeNode in="SourceGraphic"></feMergeNode>        </feMerge>    </filter>    <filter id="hover" height="200%">        <feMorphology in="SourceAlpha" result="DILATED" operator="dilate" radius="2"></feMorphology>                <feFlood flood-color="#ff0000" flood-opacity="0.5" result="PINK"></feFlood>        <feComposite in="PINK" in2="DILATED" operator="in" result="OUTLINE"></feComposite>        <feMerge>            <feMergeNode in="OUTLINE"></feMergeNode>            <feMergeNode in="SourceGraphic"></feMergeNode>        </feMerge>            <feColorMatrix type="matrix" values="0   0   0   0   0                0   1   0   0   0                0   0   0   0   0                0   0   0   1   0 "></feColorMatrix>    </filter></defs></svg>